<?xml version="1.0" encoding="utf-8"?>
<svg viewBox="0 0 80 80" xmlns="http://www.w3.org/2000/svg">
  <circle r="37.258" cy="41.486" cx="39.897" id="circle1972" style="opacity:1;vector-effect:none;fill:#000000;fill-opacity:1;fill-rule:evenodd;stroke:none;stroke-width:0.07909996;stroke-linecap:butt;stroke-linejoin:miter;stroke-miterlimit:4;stroke-dasharray:none;stroke-dashoffset:0;stroke-opacity:1"/>
  <path id="path1427" d="M 43.312 4.385 L 36.482 78.587" style="opacity:1;vector-effect:none;fill:none;fill-opacity:1;stroke:#ffffff;stroke-width:0.66068554;stroke-linecap:butt;stroke-linejoin:miter;stroke-miterlimit:4;stroke-dasharray:none;stroke-dashoffset:0;stroke-opacity:1"/>
  <path style="opacity:1;vector-effect:none;fill:none;fill-opacity:1;stroke:#ffffff;stroke-width:0.66068554;stroke-linecap:butt;stroke-linejoin:miter;stroke-miterlimit:4;stroke-dasharray:none;stroke-dashoffset:0;stroke-opacity:1" d="M 49.703 5.542 L 30.092 77.43" id="path1431"/>
  <path id="path1433" d="M 55.796 7.791 L 23.999 75.182" style="opacity:1;vector-effect:none;fill:none;fill-opacity:1;stroke:#ffffff;stroke-width:0.66068554;stroke-linecap:butt;stroke-linejoin:miter;stroke-miterlimit:4;stroke-dasharray:none;stroke-dashoffset:0;stroke-opacity:1"/>
  <path style="opacity:1;vector-effect:none;fill:none;fill-opacity:1;stroke:#ffffff;stroke-width:0.66068554;stroke-linecap:butt;stroke-linejoin:miter;stroke-miterlimit:4;stroke-dasharray:none;stroke-dashoffset:0;stroke-opacity:1" d="M 61.405 11.063 L 18.389 71.909" id="path1435"/>
  <path id="path1437" d="M 66.361 15.26 L 13.433 67.712" style="opacity:1;vector-effect:none;fill:none;fill-opacity:1;stroke:#ffffff;stroke-width:0.66068554;stroke-linecap:butt;stroke-linejoin:miter;stroke-miterlimit:4;stroke-dasharray:none;stroke-dashoffset:0;stroke-opacity:1"/>
  <path style="opacity:1;vector-effect:none;fill:none;fill-opacity:1;stroke:#ffffff;stroke-width:0.66068554;stroke-linecap:butt;stroke-linejoin:miter;stroke-miterlimit:4;stroke-dasharray:none;stroke-dashoffset:0;stroke-opacity:1" d="M 70.513 20.254 L 9.281 62.718" id="path1439"/>
  <path id="path1441" d="M 73.735 25.893 L 6.059 57.079" style="opacity:1;vector-effect:none;fill:none;fill-opacity:1;stroke:#ffffff;stroke-width:0.66068554;stroke-linecap:butt;stroke-linejoin:miter;stroke-miterlimit:4;stroke-dasharray:none;stroke-dashoffset:0;stroke-opacity:1"/>
  <path style="opacity:1;vector-effect:none;fill:none;fill-opacity:1;stroke:#ffffff;stroke-width:0.66068554;stroke-linecap:butt;stroke-linejoin:miter;stroke-miterlimit:4;stroke-dasharray:none;stroke-dashoffset:0;stroke-opacity:1" d="M 75.929 32.006 L 3.866 50.966" id="path1443"/>
  <path id="path1445" d="M 77.028 38.407 L 2.767 44.566" style="opacity:1;vector-effect:none;fill:none;fill-opacity:1;stroke:#ffffff;stroke-width:0.66068554;stroke-linecap:butt;stroke-linejoin:miter;stroke-miterlimit:4;stroke-dasharray:none;stroke-dashoffset:0;stroke-opacity:1"/>
  <path style="opacity:1;vector-effect:none;fill:none;fill-opacity:1;stroke:#ffffff;stroke-width:0.66068554;stroke-linecap:butt;stroke-linejoin:miter;stroke-miterlimit:4;stroke-dasharray:none;stroke-dashoffset:0;stroke-opacity:1" d="M 76.998 44.901 L 2.796 38.071" id="path1447"/>
  <path id="path1449" d="M 75.842 51.292 L 3.953 31.681" style="opacity:1;vector-effect:none;fill:none;fill-opacity:1;stroke:#ffffff;stroke-width:0.66068554;stroke-linecap:butt;stroke-linejoin:miter;stroke-miterlimit:4;stroke-dasharray:none;stroke-dashoffset:0;stroke-opacity:1"/>
  <path style="opacity:1;vector-effect:none;fill:none;fill-opacity:1;stroke:#ffffff;stroke-width:0.66068554;stroke-linecap:butt;stroke-linejoin:miter;stroke-miterlimit:4;stroke-dasharray:none;stroke-dashoffset:0;stroke-opacity:1" d="M 73.593 57.384 L 6.202 25.588" id="path1451"/>
  <path id="path1453" d="M 70.32 62.994 L 9.475 19.978" style="opacity:1;vector-effect:none;fill:none;fill-opacity:1;stroke:#ffffff;stroke-width:0.66068554;stroke-linecap:butt;stroke-linejoin:miter;stroke-miterlimit:4;stroke-dasharray:none;stroke-dashoffset:0;stroke-opacity:1"/>
  <path style="opacity:1;vector-effect:none;fill:none;fill-opacity:1;stroke:#ffffff;stroke-width:0.66068554;stroke-linecap:butt;stroke-linejoin:miter;stroke-miterlimit:4;stroke-dasharray:none;stroke-dashoffset:0;stroke-opacity:1" d="M 66.123 67.95 L 13.672 15.022" id="path1455"/>
  <path id="path1457" d="M 61.129 72.102 L 18.665 10.87" style="opacity:1;vector-effect:none;fill:none;fill-opacity:1;stroke:#ffffff;stroke-width:0.66068554;stroke-linecap:butt;stroke-linejoin:miter;stroke-miterlimit:4;stroke-dasharray:none;stroke-dashoffset:0;stroke-opacity:1"/>
  <path style="opacity:1;vector-effect:none;fill:none;fill-opacity:1;stroke:#ffffff;stroke-width:0.66068554;stroke-linecap:butt;stroke-linejoin:miter;stroke-miterlimit:4;stroke-dasharray:none;stroke-dashoffset:0;stroke-opacity:1" d="M 55.49 75.324 L 24.304 7.648" id="path1459"/>
  <path id="path1461" d="M 49.377 77.518 L 30.417 5.455" style="opacity:1;vector-effect:none;fill:none;fill-opacity:1;stroke:#ffffff;stroke-width:0.66068554;stroke-linecap:butt;stroke-linejoin:miter;stroke-miterlimit:4;stroke-dasharray:none;stroke-dashoffset:0;stroke-opacity:1"/>
  <path style="opacity:1;vector-effect:none;fill:none;fill-opacity:1;stroke:#ffffff;stroke-width:0.66068554;stroke-linecap:butt;stroke-linejoin:miter;stroke-miterlimit:4;stroke-dasharray:none;stroke-dashoffset:0;stroke-opacity:1" d="M 42.977 78.616 L 36.818 4.356" id="path1463"/>
  <circle r="30.37" cy="41.486" cx="39.897" id="circle2048" style="opacity:1;vector-effect:none;fill:#000000;fill-opacity:1;fill-rule:evenodd;stroke:none;stroke-width:0.06447738;stroke-linecap:butt;stroke-linejoin:miter;stroke-miterlimit:4;stroke-dasharray:none;stroke-dashoffset:0;stroke-opacity:1"/>
  <g id="g1504" transform="matrix(0.550571, 0, 0, 0.550571, -43.919029, -58.956482)">
    <g aria-label="N" style="font-style:normal;font-variant:normal;font-weight:normal;font-stretch:normal;font-size:14.77090836px;line-height:17.30965805px;font-family:Arial;-inkscape-font-specification:Arial;letter-spacing:0px;word-spacing:0px;fill:#ffffff;fill-opacity:1;stroke:none;stroke-width:0.69238633" id="text1482">
      <path d="m 147.97278,140.44279 v -10.57331 h 1.43526 l 5.55352,8.30142 v -8.30142 h 1.3415 v 10.57331 h -1.43526 l -5.55352,-8.30863 v 8.30863 z" style="fill:#ffffff;stroke-width:0.69238633" id="path1796"/>
    </g>
    <g aria-label="S" style="font-style:normal;font-variant:normal;font-weight:normal;font-stretch:normal;font-size:14.77090836px;line-height:17.30965805px;font-family:Arial;-inkscape-font-specification:Arial;letter-spacing:0px;word-spacing:0px;fill:#ffffff;fill-opacity:1;stroke:none;stroke-width:0.69238633" id="text1486">
      <path d="m 147.51119,229.61157 1.31986,-0.1154 q 0.0938,0.79336 0.43275,1.30544 0.34619,0.50486 1.06742,0.82221 0.72124,0.31013 1.62279,0.31013 0.80057,0 1.41362,-0.23801 0.61305,-0.23801 0.90875,-0.64911 0.30292,-0.41832 0.30292,-0.90876 0,-0.49765 -0.28849,-0.86548 -0.2885,-0.37504 -0.95203,-0.62748 -0.42553,-0.16588 -1.88243,-0.51207 -1.45689,-0.35341 -2.04109,-0.66354 -0.7573,-0.39668 -1.13234,-0.98088 -0.36783,-0.59141 -0.36783,-1.31986 0,-0.80057 0.45437,-1.49296 0.45438,-0.6996 1.32708,-1.06022 0.87269,-0.36061 1.94012,-0.36061 1.17562,0 2.06995,0.38225 0.90154,0.37504 1.38477,1.1107 0.48323,0.73566 0.51929,1.66606 l -1.3415,0.10097 q -0.10818,-1.00252 -0.73566,-1.51459 -0.62026,-0.51208 -1.83915,-0.51208 -1.26937,0 -1.85358,0.4688 -0.57698,0.46159 -0.57698,1.11792 0,0.56977 0.4111,0.9376 0.40389,0.36783 2.10601,0.7573 1.70933,0.38226 2.34402,0.67075 0.92318,0.42553 1.36313,1.08185 0.43995,0.64912 0.43995,1.50017 0,0.84385 -0.48322,1.59394 -0.48323,0.74287 -1.39199,1.16119 -0.90154,0.4111 -2.03388,0.4111 -1.43526,0 -2.40893,-0.41832 -0.96646,-0.41831 -1.52181,-1.25495 -0.54814,-0.84384 -0.57699,-1.90406 z" style="fill:#ffffff;stroke-width:0.69238633" id="path1799"/>
    </g>
    <g aria-label="E" transform="rotate(90)" style="font-style:normal;font-variant:normal;font-weight:normal;font-stretch:normal;font-size:14.77090836px;line-height:17.30965805px;font-family:Arial;-inkscape-font-specification:Arial;letter-spacing:0px;word-spacing:0px;fill:#ffffff;fill-opacity:1;stroke:none;stroke-width:0.69238633" id="text1490">
      <path d="m 178.13816,-192.99352 v -10.57331 h 7.6451 v 1.24774 h -6.2459 v 3.23835 h 5.84922 v 1.24052 h -5.84922 v 3.59897 h 6.49112 v 1.24773 z" style="fill:#ffffff;stroke-width:0.69238633" id="path1790"/>
    </g>
    <g aria-label="W" transform="matrix(0,1,1,0,0,0)" style="font-style:normal;font-variant:normal;font-weight:normal;font-stretch:normal;font-size:14.77090836px;line-height:17.30965805px;font-family:Arial;-inkscape-font-specification:Arial;letter-spacing:0px;word-spacing:0px;fill:#ffffff;fill-opacity:1;stroke:none;stroke-width:0.69238633" id="text1494">
      <path d="m 178.15556,111.00105 -2.8056,-10.57331 h 1.43526 l 1.60835,6.93107 q 0.25965,1.08907 0.44717,2.16371 0.40389,-1.6949 0.47601,-1.95455 l 2.01225,-7.14023 h 1.68769 l 1.5146,5.35157 q 0.56977,1.99061 0.82221,3.74321 0.20194,-1.00252 0.5265,-2.30074 l 1.65884,-6.79404 h 1.40641 l -2.89937,10.57331 h -1.34871 l -2.22862,-8.0562 q -0.28128,-1.00973 -0.33177,-1.24053 -0.16588,0.72845 -0.31013,1.24053 l -2.24304,8.0562 z" style="fill:#ffffff;stroke-width:0.69238633" id="path1793"/>
    </g>
  </g>
  <path style="opacity:1;vector-effect:none;fill:#000000;fill-opacity:1;fill-rule:evenodd;stroke:none;stroke-width:0.07909996;stroke-linecap:butt;stroke-linejoin:miter;stroke-miterlimit:4;stroke-dasharray:none;stroke-dashoffset:0;stroke-opacity:1" d="M 39.897 4.228 C 19.32 4.228 2.639 20.909 2.639 41.486 C 2.639 62.063 19.32 78.744 39.897 78.744 C 60.474 78.744 77.155 62.063 77.155 41.486 C 77.155 20.909 60.474 4.228 39.897 4.228 Z M 39.897 4.811 C 41.12 4.811 42.342 4.872 43.559 4.994 C 44.775 5.116 45.985 5.299 47.183 5.542 C 48.382 5.785 49.567 6.087 50.736 6.449 C 51.904 6.81 53.053 7.23 54.179 7.706 C 55.305 8.182 56.407 8.714 57.48 9.3 C 58.553 9.887 59.597 10.526 60.606 11.217 C 61.615 11.907 62.589 12.648 63.524 13.435 C 64.459 14.223 65.355 15.057 66.206 15.934 C 67.058 16.811 67.866 17.731 68.626 18.688 C 69.386 19.646 70.098 20.641 70.758 21.67 C 71.419 22.699 72.028 23.761 72.582 24.85 C 73.137 25.94 73.637 27.057 74.08 28.197 C 74.523 29.336 74.909 30.497 75.236 31.676 C 75.563 32.854 75.831 34.048 76.039 35.253 C 76.247 36.458 76.394 37.672 76.481 38.892 C 76.542 39.755 76.572 40.62 76.572 41.486 C 76.572 42.709 76.511 43.931 76.389 45.147 C 76.267 46.364 76.084 47.574 75.842 48.772 C 75.599 49.971 75.296 51.156 74.935 52.324 C 74.573 53.492 74.154 54.642 73.678 55.768 C 73.201 56.894 72.669 57.996 72.083 59.069 C 71.497 60.142 70.857 61.186 70.167 62.195 C 69.476 63.204 68.736 64.178 67.948 65.113 C 67.16 66.048 66.326 66.944 65.449 67.795 C 64.572 68.647 63.653 69.455 62.695 70.215 C 61.737 70.975 60.742 71.687 59.713 72.347 C 58.684 73.008 57.623 73.617 56.533 74.171 C 55.443 74.726 54.326 75.226 53.187 75.669 C 52.047 76.112 50.886 76.498 49.708 76.825 C 48.53 77.152 47.336 77.42 46.131 77.628 C 44.926 77.836 43.711 77.983 42.492 78.07 C 41.628 78.131 40.763 78.161 39.897 78.161 C 38.675 78.161 37.453 78.1 36.236 77.978 C 35.019 77.856 33.809 77.673 32.611 77.431 C 31.413 77.188 30.227 76.885 29.059 76.524 C 27.891 76.162 26.741 75.743 25.615 75.267 C 24.489 74.79 23.387 74.258 22.314 73.672 C 21.241 73.086 20.198 72.446 19.189 71.756 C 18.179 71.065 17.205 70.325 16.27 69.537 C 15.335 68.749 14.44 67.915 13.588 67.038 C 12.736 66.161 11.928 65.242 11.168 64.284 C 10.408 63.326 9.697 62.331 9.036 61.302 C 8.375 60.273 7.766 59.212 7.212 58.122 C 6.657 57.032 6.157 55.915 5.714 54.776 C 5.271 53.636 4.885 52.475 4.558 51.297 C 4.231 50.118 3.963 48.925 3.755 47.72 C 3.548 46.515 3.4 45.3 3.314 44.08 C 3.252 43.217 3.222 42.352 3.222 41.486 C 3.222 40.263 3.283 39.041 3.405 37.825 C 3.527 36.608 3.71 35.398 3.953 34.2 C 4.196 33.002 4.498 31.816 4.86 30.648 C 5.221 29.48 5.641 28.33 6.117 27.204 C 6.593 26.078 7.125 24.976 7.711 23.903 C 8.298 22.83 8.937 21.787 9.628 20.778 C 10.318 19.768 11.059 18.794 11.846 17.859 C 12.634 16.924 13.468 16.029 14.345 15.177 C 15.222 14.325 16.142 13.517 17.099 12.757 C 18.057 11.997 19.052 11.286 20.081 10.625 C 21.11 9.964 22.172 9.355 23.261 8.801 C 24.351 8.246 25.468 7.746 26.608 7.303 C 27.747 6.86 28.908 6.474 30.087 6.147 C 31.265 5.82 32.459 5.552 33.664 5.344 C 34.869 5.137 36.083 4.989 37.303 4.903 C 38.166 4.841 39.032 4.811 39.897 4.811 Z" id="circle1508"/>
  <g id="g1523" style="stroke:#ffffff" transform="matrix(0.550571, 0, 0, 0.550571, -43.919029, -160.82222)">
    <path style="opacity:1;vector-effect:none;fill:none;fill-opacity:1;stroke:#ffffff;stroke-width:1.20000005;stroke-linecap:butt;stroke-linejoin:miter;stroke-miterlimit:4;stroke-dasharray:none;stroke-dashoffset:0;stroke-opacity:1" d="m 152.2352,419.72278 v 14.34218" id="path1515"/>
    <path id="path1519" d="m 152.2352,300.6807 v 14.34218" style="opacity:1;vector-effect:none;fill:none;fill-opacity:1;stroke:#ffffff;stroke-width:1.20000005;stroke-linecap:butt;stroke-linejoin:miter;stroke-miterlimit:4;stroke-dasharray:none;stroke-dashoffset:0;stroke-opacity:1"/>
  </g>
  <g style="stroke:#ffffff" id="g1529" transform="matrix(0.542207, 0.095606, -0.095606, 0.542207, -7.522732, -172.303925)">
    <path id="path1525" d="m 152.2352,419.72278 v 14.34218" style="opacity:1;vector-effect:none;fill:none;fill-opacity:1;stroke:#ffffff;stroke-width:1.20000005;stroke-linecap:butt;stroke-linejoin:miter;stroke-miterlimit:4;stroke-dasharray:none;stroke-dashoffset:0;stroke-opacity:1"/>
    <path style="opacity:1;vector-effect:none;fill:none;fill-opacity:1;stroke:#ffffff;stroke-width:1.20000005;stroke-linecap:butt;stroke-linejoin:miter;stroke-miterlimit:4;stroke-dasharray:none;stroke-dashoffset:0;stroke-opacity:1" d="m 152.2352,300.6807 v 14.34218" id="path1527"/>
  </g>
  <g transform="matrix(0.517368, 0.188306, -0.188306, 0.517368, 30.314411, -177.291031)" id="g1536" style="stroke:#ffffff">
    <path style="opacity:1;vector-effect:none;fill:none;fill-opacity:1;stroke:#ffffff;stroke-width:1.20000005;stroke-linecap:butt;stroke-linejoin:miter;stroke-miterlimit:4;stroke-dasharray:none;stroke-dashoffset:0;stroke-opacity:1" d="m 152.2352,419.72278 v 14.34218" id="path1532"/>
    <path id="path1534" d="m 152.2352,300.6807 v 14.34218" style="opacity: 1; vector-effect: none; fill: none; stroke-width: 1.2; stroke-linecap: butt; stroke-linejoin: miter; stroke-miterlimit: 4; stroke-dasharray: none; stroke-dashoffset: 0; stroke-opacity: 1; fill-opacity: 0; stroke: rgb(253, 254, 253);"/>
  </g>
  <g style="stroke:#ffffff" id="g1542" transform="matrix(0.476809, 0.275286, -0.275286, 0.476809, 68.442688, -175.632034)">
    <path id="path1538" d="m 152.2352,419.72278 v 14.34218" style="opacity:1;vector-effect:none;fill:none;fill-opacity:1;stroke:#ffffff;stroke-width:1.20000005;stroke-linecap:butt;stroke-linejoin:miter;stroke-miterlimit:4;stroke-dasharray:none;stroke-dashoffset:0;stroke-opacity:1"/>
    <path style="opacity:1;vector-effect:none;fill:none;fill-opacity:1;stroke:#ffffff;stroke-width:1.20000005;stroke-linecap:butt;stroke-linejoin:miter;stroke-miterlimit:4;stroke-dasharray:none;stroke-dashoffset:0;stroke-opacity:1" d="m 152.2352,300.6807 v 14.34218" id="path1540"/>
  </g>
  <g transform="matrix(0.421762, 0.3539, -0.3539, 0.421762, 105.703659, -167.377319)" id="g1548" style="stroke:#ffffff">
    <path style="opacity:1;vector-effect:none;fill:none;fill-opacity:1;stroke:#ffffff;stroke-width:1.20000005;stroke-linecap:butt;stroke-linejoin:miter;stroke-miterlimit:4;stroke-dasharray:none;stroke-dashoffset:0;stroke-opacity:1" d="m 152.2352,419.72278 v 14.34218" id="path1544"/>
    <path id="path1546" d="m 152.2352,300.6807 v 14.34218" style="opacity:1;vector-effect:none;fill:none;fill-opacity:1;stroke:#ffffff;stroke-width:1.20000005;stroke-linecap:butt;stroke-linejoin:miter;stroke-miterlimit:4;stroke-dasharray:none;stroke-dashoffset:0;stroke-opacity:1"/>
  </g>
  <g style="stroke:#ffffff" id="g1554" transform="matrix(0.3539, 0.421762, -0.421762, 0.3539, 140.965134, -152.777725)">
    <path id="path1550" d="m 152.2352,419.72278 v 14.34218" style="opacity:1;vector-effect:none;fill:none;fill-opacity:1;stroke:#ffffff;stroke-width:1.20000005;stroke-linecap:butt;stroke-linejoin:miter;stroke-miterlimit:4;stroke-dasharray:none;stroke-dashoffset:0;stroke-opacity:1"/>
    <path style="opacity:1;vector-effect:none;fill:none;fill-opacity:1;stroke:#ffffff;stroke-width:1.20000005;stroke-linecap:butt;stroke-linejoin:miter;stroke-miterlimit:4;stroke-dasharray:none;stroke-dashoffset:0;stroke-opacity:1" d="m 152.2352,300.6807 v 14.34218" id="path1552"/>
  </g>
  <g transform="matrix(0.275286, 0.476809, -0.476809, 0.275286, 173.15567, -132.276825)" id="g1560" style="stroke:#ffffff">
    <path style="opacity:1;vector-effect:none;fill:none;fill-opacity:1;stroke:#ffffff;stroke-width:1.20000005;stroke-linecap:butt;stroke-linejoin:miter;stroke-miterlimit:4;stroke-dasharray:none;stroke-dashoffset:0;stroke-opacity:1" d="m 152.2352,419.72278 v 14.34218" id="path1556"/>
    <path id="path1558" d="m 152.2352,300.6807 v 14.34218" style="opacity:1;vector-effect:none;fill:none;fill-opacity:1;stroke:#ffffff;stroke-width:1.20000005;stroke-linecap:butt;stroke-linejoin:miter;stroke-miterlimit:4;stroke-dasharray:none;stroke-dashoffset:0;stroke-opacity:1"/>
  </g>
  <g style="stroke:#ffffff" id="g1566" transform="matrix(0.188306, 0.517368, -0.517368, 0.188306, 201.297272, -106.497559)">
    <path id="path1562" d="m 152.2352,419.72278 v 14.34218" style="opacity:1;vector-effect:none;fill:none;fill-opacity:1;stroke:#ffffff;stroke-width:1.20000005;stroke-linecap:butt;stroke-linejoin:miter;stroke-miterlimit:4;stroke-dasharray:none;stroke-dashoffset:0;stroke-opacity:1"/>
    <path style="opacity:1;vector-effect:none;fill:none;fill-opacity:1;stroke:#ffffff;stroke-width:1.20000005;stroke-linecap:butt;stroke-linejoin:miter;stroke-miterlimit:4;stroke-dasharray:none;stroke-dashoffset:0;stroke-opacity:1" d="m 152.2352,300.6807 v 14.34218" id="path1564"/>
  </g>
  <g transform="matrix(0.095606, 0.542207, -0.542207, 0.095606, 224.534821, -76.223206)" id="g1572" style="stroke:#ffffff">
    <path style="opacity:1;vector-effect:none;fill:none;fill-opacity:1;stroke:#ffffff;stroke-width:1.20000005;stroke-linecap:butt;stroke-linejoin:miter;stroke-miterlimit:4;stroke-dasharray:none;stroke-dashoffset:0;stroke-opacity:1" d="m 152.2352,419.72278 v 14.34218" id="path1568"/>
    <path id="path1570" d="m 152.2352,300.6807 v 14.34218" style="opacity:1;vector-effect:none;fill:none;fill-opacity:1;stroke:#ffffff;stroke-width:1.20000005;stroke-linecap:butt;stroke-linejoin:miter;stroke-miterlimit:4;stroke-dasharray:none;stroke-dashoffset:0;stroke-opacity:1"/>
  </g>
  <g style="stroke:#ffffff" id="g1578" transform="matrix(0, 0.550571, -0.550571, 0, 242.162201, -42.373619)">
    <path id="path1574" d="m 152.2352,419.72278 v 14.34218" style="opacity:1;vector-effect:none;fill:none;fill-opacity:1;stroke:#ffffff;stroke-width:1.20000005;stroke-linecap:butt;stroke-linejoin:miter;stroke-miterlimit:4;stroke-dasharray:none;stroke-dashoffset:0;stroke-opacity:1"/>
    <path style="opacity:1;vector-effect:none;fill:none;fill-opacity:1;stroke:#ffffff;stroke-width:1.20000005;stroke-linecap:butt;stroke-linejoin:miter;stroke-miterlimit:4;stroke-dasharray:none;stroke-dashoffset:0;stroke-opacity:1" d="m 152.2352,300.6807 v 14.34218" id="path1576"/>
  </g>
  <g transform="matrix(-0.095606, 0.542207, -0.542207, -0.095606, 253.643921, -5.977341)" id="g1584" style="stroke:#ffffff">
    <path style="opacity:1;vector-effect:none;fill:none;fill-opacity:1;stroke:#ffffff;stroke-width:1.20000005;stroke-linecap:butt;stroke-linejoin:miter;stroke-miterlimit:4;stroke-dasharray:none;stroke-dashoffset:0;stroke-opacity:1" d="m 152.2352,419.72278 v 14.34218" id="path1580"/>
    <path id="path1582" d="m 152.2352,300.6807 v 14.34218" style="opacity:1;vector-effect:none;fill:none;fill-opacity:1;stroke:#ffffff;stroke-width:1.20000005;stroke-linecap:butt;stroke-linejoin:miter;stroke-miterlimit:4;stroke-dasharray:none;stroke-dashoffset:0;stroke-opacity:1"/>
  </g>
  <g style="stroke:#ffffff" id="g1590" transform="matrix(-0.188306, 0.517368, -0.517368, -0.188306, 258.631012, 31.859787)">
    <path id="path1586" d="m 152.2352,419.72278 v 14.34218" style="opacity:1;vector-effect:none;fill:none;fill-opacity:1;stroke:#ffffff;stroke-width:1.20000005;stroke-linecap:butt;stroke-linejoin:miter;stroke-miterlimit:4;stroke-dasharray:none;stroke-dashoffset:0;stroke-opacity:1"/>
    <path style="opacity:1;vector-effect:none;fill:none;fill-opacity:1;stroke:#ffffff;stroke-width:1.20000005;stroke-linecap:butt;stroke-linejoin:miter;stroke-miterlimit:4;stroke-dasharray:none;stroke-dashoffset:0;stroke-opacity:1" d="m 152.2352,300.6807 v 14.34218" id="path1588"/>
  </g>
  <g transform="matrix(-0.275286, 0.476809, -0.476809, -0.275286, 256.972015, 69.988083)" id="g1596" style="stroke:#ffffff">
    <path style="opacity:1;vector-effect:none;fill:none;fill-opacity:1;stroke:#ffffff;stroke-width:1.20000005;stroke-linecap:butt;stroke-linejoin:miter;stroke-miterlimit:4;stroke-dasharray:none;stroke-dashoffset:0;stroke-opacity:1" d="m 152.2352,419.72278 v 14.34218" id="path1592"/>
    <path id="path1594" d="m 152.2352,300.6807 v 14.34218" style="opacity:1;vector-effect:none;fill:none;fill-opacity:1;stroke:#ffffff;stroke-width:1.20000005;stroke-linecap:butt;stroke-linejoin:miter;stroke-miterlimit:4;stroke-dasharray:none;stroke-dashoffset:0;stroke-opacity:1"/>
  </g>
  <g style="stroke:#ffffff" id="g1602" transform="matrix(-0.3539, 0.421762, -0.421762, -0.3539, 248.717285, 107.249039)">
    <path id="path1598" d="m 152.2352,419.72278 v 14.34218" style="opacity:1;vector-effect:none;fill:none;fill-opacity:1;stroke:#ffffff;stroke-width:1.20000005;stroke-linecap:butt;stroke-linejoin:miter;stroke-miterlimit:4;stroke-dasharray:none;stroke-dashoffset:0;stroke-opacity:1"/>
    <path style="opacity:1;vector-effect:none;fill:none;fill-opacity:1;stroke:#ffffff;stroke-width:1.20000005;stroke-linecap:butt;stroke-linejoin:miter;stroke-miterlimit:4;stroke-dasharray:none;stroke-dashoffset:0;stroke-opacity:1" d="m 152.2352,300.6807 v 14.34218" id="path1600"/>
  </g>
  <g transform="matrix(-0.421762, 0.3539, -0.3539, -0.421762, 234.117706, 142.510544)" id="g1608" style="stroke:#ffffff">
    <path style="opacity:1;vector-effect:none;fill:none;fill-opacity:1;stroke:#ffffff;stroke-width:1.20000005;stroke-linecap:butt;stroke-linejoin:miter;stroke-miterlimit:4;stroke-dasharray:none;stroke-dashoffset:0;stroke-opacity:1" d="m 152.2352,419.72278 v 14.34218" id="path1604"/>
    <path id="path1606" d="m 152.2352,300.6807 v 14.34218" style="opacity:1;vector-effect:none;fill:none;fill-opacity:1;stroke:#ffffff;stroke-width:1.20000005;stroke-linecap:butt;stroke-linejoin:miter;stroke-miterlimit:4;stroke-dasharray:none;stroke-dashoffset:0;stroke-opacity:1"/>
  </g>
  <g style="stroke:#ffffff" id="g1614" transform="matrix(-0.476809, 0.275286, -0.275286, -0.476809, 213.616821, 174.701096)">
    <path id="path1610" d="m 152.2352,419.72278 v 14.34218" style="opacity:1;vector-effect:none;fill:none;fill-opacity:1;stroke:#ffffff;stroke-width:1.20000005;stroke-linecap:butt;stroke-linejoin:miter;stroke-miterlimit:4;stroke-dasharray:none;stroke-dashoffset:0;stroke-opacity:1"/>
    <path style="opacity:1;vector-effect:none;fill:none;fill-opacity:1;stroke:#ffffff;stroke-width:1.20000005;stroke-linecap:butt;stroke-linejoin:miter;stroke-miterlimit:4;stroke-dasharray:none;stroke-dashoffset:0;stroke-opacity:1" d="m 152.2352,300.6807 v 14.34218" id="path1612"/>
  </g>
  <g transform="matrix(-0.517368, 0.188306, -0.188306, -0.517368, 187.837555, 202.842697)" id="g1621" style="stroke:#ffffff">
    <path style="opacity:1;vector-effect:none;fill:none;fill-opacity:1;stroke:#ffffff;stroke-width:1.20000005;stroke-linecap:butt;stroke-linejoin:miter;stroke-miterlimit:4;stroke-dasharray:none;stroke-dashoffset:0;stroke-opacity:1" d="m 152.2352,419.72278 v 14.34218" id="path1616"/>
    <path id="path1619" d="m 152.2352,300.6807 v 14.34218" style="opacity:1;vector-effect:none;fill:none;fill-opacity:1;stroke:#ffffff;stroke-width:1.20000005;stroke-linecap:butt;stroke-linejoin:miter;stroke-miterlimit:4;stroke-dasharray:none;stroke-dashoffset:0;stroke-opacity:1"/>
  </g>
  <g style="stroke:#ffffff" id="g1627" transform="matrix(-0.542207, 0.095606, -0.095606, -0.542207, 157.563202, 226.080215)">
    <path id="path1623" d="m 152.2352,419.72278 v 14.34218" style="opacity:1;vector-effect:none;fill:none;fill-opacity:1;stroke:#ffffff;stroke-width:1.20000005;stroke-linecap:butt;stroke-linejoin:miter;stroke-miterlimit:4;stroke-dasharray:none;stroke-dashoffset:0;stroke-opacity:1"/>
    <path style="opacity:1;vector-effect:none;fill:none;fill-opacity:1;stroke:#ffffff;stroke-width:1.20000005;stroke-linecap:butt;stroke-linejoin:miter;stroke-miterlimit:4;stroke-dasharray:none;stroke-dashoffset:0;stroke-opacity:1" d="m 152.2352,300.6807 v 14.34218" id="path1625"/>
  </g>
  <g id="g1701" transform="matrix(0.550571, 0, 0, 0.550571, -43.919029, -58.564507)">
    <g transform="rotate(30,151.8421,182.05348)" id="g1641">
      <g aria-label="3" style="font-style:normal;font-variant:normal;font-weight:normal;font-stretch:normal;font-size:13.8889122px;line-height:16.27606773px;font-family:Arial;-inkscape-font-specification:Arial;letter-spacing:0px;word-spacing:0px;fill:#ffffff;fill-opacity:1;stroke:none;stroke-width:0.6510427" id="text1631">
        <path d="m 148.56302,138.01989 1.22071,-0.16276 q 0.21023,1.0376 0.71208,1.49876 0.50862,0.45437 1.23426,0.45437 0.86128,0 1.45129,-0.59679 0.59679,-0.59679 0.59679,-1.47841 0,-0.84093 -0.54932,-1.38346 -0.54932,-0.54932 -1.39703,-0.54932 -0.34587,0 -0.86127,0.13563 l 0.13563,-1.07151 q 0.12207,0.0136 0.19667,0.0136 0.77989,0 1.40381,-0.4069 0.62392,-0.40691 0.62392,-1.25462 0,-0.67139 -0.45438,-1.1122 -0.45437,-0.44081 -1.17323,-0.44081 -0.71208,0 -1.1868,0.4476 -0.47472,0.44759 -0.61035,1.34277 l -1.22071,-0.21701 q 0.2238,-1.22749 1.01726,-1.89888 0.79346,-0.67817 1.97347,-0.67817 0.8138,0 1.49876,0.35265 0.68495,0.34587 1.04438,0.94944 0.36621,0.60357 0.36621,1.28174 0,0.64426 -0.34587,1.17323 -0.34586,0.52898 -1.02403,0.84093 0.88162,0.20345 1.3699,0.84771 0.48828,0.63748 0.48828,1.60049 0,1.30208 -0.94944,2.21083 -0.94943,0.90196 -2.40072,0.90196 -1.30886,0 -2.17692,-0.77989 -0.86128,-0.7799 -0.98335,-2.02095 z" style="fill:#ffffff;stroke-width:0.6510427" id="path1825"/>
      </g>
      <g aria-label="21" transform="scale(-1)" style="font-style:normal;font-variant:normal;font-weight:normal;font-stretch:normal;font-size:13.8889122px;line-height:16.27606773px;font-family:Arial;-inkscape-font-specification:Arial;letter-spacing:0px;word-spacing:0px;fill:#ffffff;fill-opacity:1;stroke:none;stroke-width:0.6510427" id="text1635">
        <path d="m -151.51265,-224.63579 v 1.17324 h -6.57146 q -0.0136,-0.44082 0.14241,-0.84772 0.25093,-0.67138 0.80024,-1.32243 0.5561,-0.65104 1.60048,-1.50553 1.62083,-1.32922 2.19049,-2.10233 0.56966,-0.77989 0.56966,-1.47163 0,-0.72564 -0.52219,-1.2207 -0.51541,-0.50185 -1.34955,-0.50185 -0.88163,0 -1.4106,0.52897 -0.52897,0.52898 -0.53575,1.46485 l -1.25461,-0.12885 q 0.12885,-1.40381 0.96978,-2.13624 0.84093,-0.7392 2.2583,-0.7392 1.43094,0 2.26509,0.79346 0.83415,0.79346 0.83415,1.96669 0,0.59679 -0.24414,1.17323 -0.24415,0.57645 -0.81381,1.21393 -0.56288,0.63748 -1.87853,1.74967 -1.09863,0.92231 -1.41059,1.25462 -0.31196,0.32552 -0.51541,0.65782 z" style="fill:#ffffff;stroke-width:0.6510427" id="path1802"/>
        <path d="m -145.59901,-223.46255 h -1.22071 v -7.77861 q -0.44081,0.42047 -1.15967,0.84093 -0.71207,0.42047 -1.28174,0.6307 v -1.18002 q 1.02404,-0.4815 1.79037,-1.16645 0.76633,-0.68495 1.08507,-1.32921 h 0.78668 z" style="fill:#ffffff;stroke-width:0.6510427" id="path1805"/>
      </g>
    </g>
    <g id="g1651" transform="rotate(60,151.28932,182.5987)">
      <g aria-label="6" style="font-style:normal;font-variant:normal;font-weight:normal;font-stretch:normal;font-size:13.8889122px;line-height:16.27606773px;font-family:Arial;-inkscape-font-specification:Arial;letter-spacing:0px;word-spacing:0px;fill:#ffffff;fill-opacity:1;stroke:none;stroke-width:0.6510427" id="text1645">
        <path d="m 154.89034,133.13707 -1.21392,0.095 q -0.16276,-0.71886 -0.46115,-1.04438 -0.49507,-0.5222 -1.22071,-0.5222 -0.58322,0 -1.02403,0.32553 -0.57645,0.42046 -0.90875,1.22748 -0.33231,0.80702 -0.34587,2.299 0.44081,-0.67139 1.07829,-0.99691 0.63748,-0.32552 1.33599,-0.32552 1.22071,0 2.0752,0.90196 0.86128,0.89519 0.86128,2.31934 0,0.93588 -0.4069,1.7429 -0.40012,0.80024 -1.10542,1.22748 -0.7053,0.42725 -1.60048,0.42725 -1.52588,0 -2.48888,-1.11898 -0.963,-1.12576 -0.963,-3.7028 0,-2.88222 1.06472,-4.19109 0.9291,-1.13933 2.50245,-1.13933 1.17323,0 1.91922,0.65783 0.75277,0.65782 0.90196,1.81749 z m -4.98454,4.28603 q 0,0.6307 0.26448,1.20715 0.27127,0.57644 0.75277,0.88162 0.4815,0.29839 1.01048,0.29839 0.77311,0 1.32921,-0.62392 0.5561,-0.62391 0.5561,-1.69542 0,-1.03082 -0.54932,-1.62082 -0.54932,-0.59679 -1.38347,-0.59679 -0.82736,0 -1.40381,0.59679 -0.57644,0.59 -0.57644,1.553 z" style="fill:#ffffff;stroke-width:0.6510427" id="path1828"/>
      </g>
      <g aria-label="24" transform="scale(-1)" style="font-style:normal;font-variant:normal;font-weight:normal;font-stretch:normal;font-size:13.8889122px;line-height:16.27606773px;font-family:Arial;-inkscape-font-specification:Arial;letter-spacing:0px;word-spacing:0px;fill:#ffffff;fill-opacity:1;stroke:none;stroke-width:0.6510427" id="text1649">
        <path d="m -150.59735,-224.88104 v 1.17323 h -6.57146 q -0.0136,-0.44081 0.14241,-0.84771 0.25092,-0.67139 0.80024,-1.32243 0.5561,-0.65104 1.60048,-1.50554 1.62083,-1.32921 2.19049,-2.10232 0.56966,-0.7799 0.56966,-1.47163 0,-0.72564 -0.52219,-1.22071 -0.51541,-0.50184 -1.34956,-0.50184 -0.88162,0 -1.41059,0.52897 -0.52897,0.52897 -0.53575,1.46485 l -1.25462,-0.12886 q 0.12886,-1.40381 0.96979,-2.13623 0.84093,-0.73921 2.2583,-0.73921 1.43094,0 2.26509,0.79346 0.83415,0.79346 0.83415,1.96669 0,0.59679 -0.24415,1.17324 -0.24414,0.57644 -0.8138,1.21392 -0.56288,0.63748 -1.87853,1.74968 -1.09863,0.92231 -1.41059,1.25461 -0.31196,0.32552 -0.51541,0.65783 z" style="fill:#ffffff;stroke-width:0.6510427" id="path1810"/>
        <path d="m -145.36866,-223.70781 v -2.38037 h -4.31316 v -1.11898 l 4.53695,-6.44261 h 0.99691 v 6.44261 h 1.34278 v 1.11898 h -1.34278 v 2.38037 z m 0,-3.49935 v -4.4827 l -3.1128,4.4827 z" style="fill:#ffffff;stroke-width:0.6510427" id="path1812"/>
      </g>
    </g>
    <g transform="rotate(120,151.48265,183.46251)" id="g1669">
      <g aria-label="12" style="font-style:normal;font-variant:normal;font-weight:normal;font-stretch:normal;font-size:13.8889122px;line-height:16.27606773px;font-family:Arial;-inkscape-font-specification:Arial;letter-spacing:0px;word-spacing:0px;fill:#ffffff;fill-opacity:1;stroke:none;stroke-width:0.6510427" id="text1663">
        <path d="m 146.88842,142.34717 h -1.2207 v -7.77861 q -0.44081,0.42047 -1.15967,0.84093 -0.71208,0.42047 -1.28174,0.6307 v -1.18001 q 1.02403,-0.4815 1.79036,-1.16646 0.76634,-0.68495 1.08508,-1.32921 h 0.78667 z" style="fill:#ffffff;stroke-width:0.6510427" id="path1831"/>
        <path d="m 156.43705,141.17393 v 1.17324 h -6.57146 q -0.0136,-0.44081 0.14241,-0.84771 0.25093,-0.67139 0.80024,-1.32243 0.5561,-0.65105 1.60048,-1.50554 1.62083,-1.32921 2.19049,-2.10233 0.56966,-0.77989 0.56966,-1.47162 0,-0.72565 -0.52219,-1.22071 -0.51541,-0.50185 -1.34955,-0.50185 -0.88163,0 -1.4106,0.52898 -0.52897,0.52897 -0.53575,1.46484 l -1.25461,-0.12885 q 0.12885,-1.40381 0.96978,-2.13623 0.84093,-0.73921 2.2583,-0.73921 1.43094,0 2.26509,0.79346 0.83415,0.79346 0.83415,1.96669 0,0.59679 -0.24414,1.17324 -0.24415,0.57644 -0.81381,1.21392 -0.56288,0.63748 -1.87853,1.74968 -1.09863,0.92231 -1.41059,1.25461 -0.31196,0.32552 -0.51541,0.65782 z" style="fill:#ffffff;stroke-width:0.6510427" id="path1834"/>
      </g>
      <g aria-label="30" transform="scale(-1)" style="font-style:normal;font-variant:normal;font-weight:normal;font-stretch:normal;font-size:13.8889122px;line-height:16.27606773px;font-family:Arial;-inkscape-font-specification:Arial;letter-spacing:0px;word-spacing:0px;fill:#ffffff;fill-opacity:1;stroke:none;stroke-width:0.6510427" id="text1667">
        <path d="m -156.31608,-228.51836 1.2207,-0.16276 q 0.21024,1.0376 0.71208,1.49875 0.50863,0.45438 1.23427,0.45438 0.86128,0 1.45128,-0.59679 0.59679,-0.59679 0.59679,-1.47841 0,-0.84093 -0.54932,-1.38347 -0.54931,-0.54932 -1.39702,-0.54932 -0.34587,0 -0.86128,0.13564 l 0.13563,-1.07151 q 0.12207,0.0136 0.19667,0.0136 0.7799,0 1.40381,-0.4069 0.62392,-0.4069 0.62392,-1.25461 0,-0.67139 -0.45437,-1.1122 -0.45438,-0.44081 -1.17324,-0.44081 -0.71207,0 -1.18679,0.44759 -0.47472,0.44759 -0.61036,1.34278 l -1.2207,-0.21702 q 0.2238,-1.22748 1.01725,-1.89887 0.79346,-0.67817 1.97348,-0.67817 0.8138,0 1.49875,0.35265 0.68495,0.34586 1.04438,0.94944 0.36621,0.60357 0.36621,1.28174 0,0.64426 -0.34586,1.17323 -0.34587,0.52897 -1.02404,0.84093 0.88162,0.20345 1.3699,0.84771 0.48829,0.63748 0.48829,1.60048 0,1.30209 -0.94944,2.21083 -0.94944,0.90197 -2.40072,0.90197 -1.30887,0 -2.17693,-0.7799 -0.86127,-0.77989 -0.98334,-2.02094 z" style="fill:#ffffff;stroke-width:0.6510427" id="path1815"/>
        <path d="m -148.59173,-230.79701 q 0,-1.76324 0.35943,-2.83475 0.36621,-1.07829 1.07829,-1.66151 0.71886,-0.58323 1.80393,-0.58323 0.80024,0 1.40381,0.32552 0.60357,0.31874 0.99691,0.92909 0.39334,0.60357 0.61713,1.47841 0.2238,0.86806 0.2238,2.34647 0,1.74968 -0.35943,2.82797 -0.35943,1.0715 -1.07829,1.66151 -0.71208,0.58323 -1.80393,0.58323 -1.43772,0 -2.2583,-1.03082 -0.98335,-1.24105 -0.98335,-4.04189 z m 1.25461,0 q 0,2.44819 0.56967,3.262 0.57644,0.80702 1.41737,0.80702 0.84093,0 1.41059,-0.81381 0.57645,-0.8138 0.57645,-3.25521 0,-2.45497 -0.57645,-3.262 -0.56966,-0.80702 -1.42415,-0.80702 -0.84093,0 -1.34278,0.71208 -0.6307,0.90875 -0.6307,3.35694 z" style="fill:#ffffff;stroke-width:0.6510427" id="path1817"/>
      </g>
    </g>
    <g id="g1679" transform="rotate(150,151.0005,183.09569)">
      <g aria-label="15" style="font-style:normal;font-variant:normal;font-weight:normal;font-stretch:normal;font-size:13.8889122px;line-height:16.27606773px;font-family:Arial;-inkscape-font-specification:Arial;letter-spacing:0px;word-spacing:0px;fill:#ffffff;fill-opacity:1;stroke:none;stroke-width:0.6510427" id="text1673">
        <path d="m 146.88842,142.34717 h -1.2207 v -7.77861 q -0.44081,0.42047 -1.15967,0.84093 -0.71208,0.42047 -1.28174,0.6307 v -1.18001 q 1.02403,-0.4815 1.79036,-1.16646 0.76634,-0.68495 1.08508,-1.32921 h 0.78667 z" style="fill:#ffffff;stroke-width:0.6510427" id="path1837"/>
        <path d="m 150.02157,139.743 1.28174,-0.10851 q 0.14241,0.93587 0.65782,1.41059 0.52219,0.46794 1.25461,0.46794 0.88163,0 1.49198,-0.66461 0.61035,-0.6646 0.61035,-1.76324 0,-1.04438 -0.59001,-1.64795 -0.58322,-0.60357 -1.53266,-0.60357 -0.59001,0 -1.06473,0.27127 -0.47472,0.26448 -0.74598,0.69173 l -1.14611,-0.1492 0.963,-5.10661 h 4.94386 v 1.16645 h -3.96729 l -0.53576,2.67199 q 0.89519,-0.62392 1.87853,-0.62392 1.30209,0 2.19727,0.90197 0.89518,0.90196 0.89518,2.31934 0,1.34955 -0.78667,2.3329 -0.95622,1.20714 -2.61096,1.20714 -1.35633,0 -2.21761,-0.75955 -0.85449,-0.75955 -0.97656,-2.01416 z" style="fill:#ffffff;stroke-width:0.6510427" id="path1840"/>
      </g>
      <g aria-label="33" transform="scale(-1)" style="font-style:normal;font-variant:normal;font-weight:normal;font-stretch:normal;font-size:13.8889122px;line-height:16.27606773px;font-family:Arial;-inkscape-font-specification:Arial;letter-spacing:0px;word-spacing:0px;fill:#ffffff;fill-opacity:1;stroke:none;stroke-width:0.6510427" id="text1677">
        <path d="m -156.31608,-228.51836 1.2207,-0.16276 q 0.21024,1.0376 0.71208,1.49875 0.50863,0.45438 1.23427,0.45438 0.86128,0 1.45128,-0.59679 0.59679,-0.59679 0.59679,-1.47841 0,-0.84093 -0.54932,-1.38347 -0.54931,-0.54932 -1.39702,-0.54932 -0.34587,0 -0.86128,0.13564 l 0.13563,-1.07151 q 0.12207,0.0136 0.19667,0.0136 0.7799,0 1.40381,-0.4069 0.62392,-0.4069 0.62392,-1.25461 0,-0.67139 -0.45437,-1.1122 -0.45438,-0.44081 -1.17324,-0.44081 -0.71207,0 -1.18679,0.44759 -0.47472,0.44759 -0.61036,1.34278 l -1.2207,-0.21702 q 0.2238,-1.22748 1.01725,-1.89887 0.79346,-0.67817 1.97348,-0.67817 0.8138,0 1.49875,0.35265 0.68495,0.34586 1.04438,0.94944 0.36621,0.60357 0.36621,1.28174 0,0.64426 -0.34586,1.17323 -0.34587,0.52897 -1.02404,0.84093 0.88162,0.20345 1.3699,0.84771 0.48829,0.63748 0.48829,1.60048 0,1.30209 -0.94944,2.21083 -0.94944,0.90197 -2.40072,0.90197 -1.30887,0 -2.17693,-0.7799 -0.86127,-0.77989 -0.98334,-2.02094 z" style="fill:#ffffff;stroke-width:0.6510427" id="path1820"/>
        <path d="m -148.58495,-228.51836 1.22071,-0.16276 q 0.21023,1.0376 0.71207,1.49875 0.50863,0.45438 1.23427,0.45438 0.86128,0 1.45129,-0.59679 0.59679,-0.59679 0.59679,-1.47841 0,-0.84093 -0.54932,-1.38347 -0.54932,-0.54932 -1.39703,-0.54932 -0.34587,0 -0.86128,0.13564 l 0.13564,-1.07151 q 0.12207,0.0136 0.19667,0.0136 0.77989,0 1.40381,-0.4069 0.62391,-0.4069 0.62391,-1.25461 0,-0.67139 -0.45437,-1.1122 -0.45437,-0.44081 -1.17323,-0.44081 -0.71208,0 -1.1868,0.44759 -0.47472,0.44759 -0.61035,1.34278 l -1.22071,-0.21702 q 0.2238,-1.22748 1.01726,-1.89887 0.79345,-0.67817 1.97347,-0.67817 0.8138,0 1.49875,0.35265 0.68496,0.34586 1.04439,0.94944 0.36621,0.60357 0.36621,1.28174 0,0.64426 -0.34587,1.17323 -0.34587,0.52897 -1.02404,0.84093 0.88162,0.20345 1.36991,0.84771 0.48828,0.63748 0.48828,1.60048 0,1.30209 -0.94944,2.21083 -0.94944,0.90197 -2.40072,0.90197 -1.30887,0 -2.17692,-0.7799 -0.86128,-0.77989 -0.98335,-2.02094 z" style="fill:#ffffff;stroke-width:0.6510427" id="path1822"/>
      </g>
    </g>
  </g>
</svg>