<?xml version="1.0" encoding="utf-8"?>
<svg viewBox="0 0 74.5 74.5" xmlns="http://www.w3.org/2000/svg">
  <circle r="37.258" cy="37.258" cx="37.258" id="circle1972" style="opacity:1;vector-effect:none;fill:#000000;fill-opacity:1;fill-rule:evenodd;stroke:none;stroke-width:0.07909996;stroke-linecap:butt;stroke-linejoin:miter;stroke-miterlimit:4;stroke-dasharray:none;stroke-dashoffset:0;stroke-opacity:1"/>
  <path id="path1427" d="M 40.673 0.157 L 33.843 74.359" style="opacity:1;vector-effect:none;fill:none;fill-opacity:1;stroke:#ffffff;stroke-width:0.66068554;stroke-linecap:butt;stroke-linejoin:miter;stroke-miterlimit:4;stroke-dasharray:none;stroke-dashoffset:0;stroke-opacity:1"/>
  <path style="opacity:1;vector-effect:none;fill:none;fill-opacity:1;stroke:#ffffff;stroke-width:0.66068554;stroke-linecap:butt;stroke-linejoin:miter;stroke-miterlimit:4;stroke-dasharray:none;stroke-dashoffset:0;stroke-opacity:1" d="M 47.064 1.314 L 27.453 73.202" id="path1431"/>
  <path id="path1433" d="M 53.157 3.563 L 21.36 70.954" style="opacity:1;vector-effect:none;fill:none;fill-opacity:1;stroke:#ffffff;stroke-width:0.66068554;stroke-linecap:butt;stroke-linejoin:miter;stroke-miterlimit:4;stroke-dasharray:none;stroke-dashoffset:0;stroke-opacity:1"/>
  <path style="opacity:1;vector-effect:none;fill:none;fill-opacity:1;stroke:#ffffff;stroke-width:0.66068554;stroke-linecap:butt;stroke-linejoin:miter;stroke-miterlimit:4;stroke-dasharray:none;stroke-dashoffset:0;stroke-opacity:1" d="M 58.766 6.835 L 15.75 67.681" id="path1435"/>
  <path id="path1437" d="M 63.722 11.032 L 10.794 63.484" style="opacity:1;vector-effect:none;fill:none;fill-opacity:1;stroke:#ffffff;stroke-width:0.66068554;stroke-linecap:butt;stroke-linejoin:miter;stroke-miterlimit:4;stroke-dasharray:none;stroke-dashoffset:0;stroke-opacity:1"/>
  <path style="opacity:1;vector-effect:none;fill:none;fill-opacity:1;stroke:#ffffff;stroke-width:0.66068554;stroke-linecap:butt;stroke-linejoin:miter;stroke-miterlimit:4;stroke-dasharray:none;stroke-dashoffset:0;stroke-opacity:1" d="M 67.874 16.026 L 6.642 58.49" id="path1439"/>
  <path id="path1441" d="M 71.096 21.665 L 3.42 52.851" style="opacity:1;vector-effect:none;fill:none;fill-opacity:1;stroke:#ffffff;stroke-width:0.66068554;stroke-linecap:butt;stroke-linejoin:miter;stroke-miterlimit:4;stroke-dasharray:none;stroke-dashoffset:0;stroke-opacity:1"/>
  <path style="opacity:1;vector-effect:none;fill:none;fill-opacity:1;stroke:#ffffff;stroke-width:0.66068554;stroke-linecap:butt;stroke-linejoin:miter;stroke-miterlimit:4;stroke-dasharray:none;stroke-dashoffset:0;stroke-opacity:1" d="M 73.29 27.778 L 1.227 46.738" id="path1443"/>
  <path id="path1445" d="M 74.389 34.179 L 0.128 40.338" style="opacity:1;vector-effect:none;fill:none;fill-opacity:1;stroke:#ffffff;stroke-width:0.66068554;stroke-linecap:butt;stroke-linejoin:miter;stroke-miterlimit:4;stroke-dasharray:none;stroke-dashoffset:0;stroke-opacity:1"/>
  <path style="opacity:1;vector-effect:none;fill:none;fill-opacity:1;stroke:#ffffff;stroke-width:0.66068554;stroke-linecap:butt;stroke-linejoin:miter;stroke-miterlimit:4;stroke-dasharray:none;stroke-dashoffset:0;stroke-opacity:1" d="M 74.359 40.673 L 0.157 33.843" id="path1447"/>
  <path id="path1449" d="M 73.203 47.064 L 1.314 27.453" style="opacity:1;vector-effect:none;fill:none;fill-opacity:1;stroke:#ffffff;stroke-width:0.66068554;stroke-linecap:butt;stroke-linejoin:miter;stroke-miterlimit:4;stroke-dasharray:none;stroke-dashoffset:0;stroke-opacity:1"/>
  <path style="opacity:1;vector-effect:none;fill:none;fill-opacity:1;stroke:#ffffff;stroke-width:0.66068554;stroke-linecap:butt;stroke-linejoin:miter;stroke-miterlimit:4;stroke-dasharray:none;stroke-dashoffset:0;stroke-opacity:1" d="M 70.954 53.156 L 3.563 21.36" id="path1451"/>
  <path id="path1453" d="M 67.681 58.766 L 6.836 15.75" style="opacity: 1; vector-effect: none; fill: none; fill-opacity: 1; stroke-width: 0.660686; stroke-linecap: butt; stroke-linejoin: miter; stroke-miterlimit: 4; stroke-dasharray: none; stroke-dashoffset: 0; stroke-opacity: 1; stroke: rgb(255, 255, 255);"/>
  <path style="opacity:1;vector-effect:none;fill:none;fill-opacity:1;stroke:#ffffff;stroke-width:0.66068554;stroke-linecap:butt;stroke-linejoin:miter;stroke-miterlimit:4;stroke-dasharray:none;stroke-dashoffset:0;stroke-opacity:1" d="M 63.484 63.722 L 11.033 10.794" id="path1455"/>
  <path id="path1457" d="M 58.49 67.874 L 16.026 6.642" style="opacity:1;vector-effect:none;fill:none;fill-opacity:1;stroke:#ffffff;stroke-width:0.66068554;stroke-linecap:butt;stroke-linejoin:miter;stroke-miterlimit:4;stroke-dasharray:none;stroke-dashoffset:0;stroke-opacity:1"/>
  <path style="opacity:1;vector-effect:none;fill:none;fill-opacity:1;stroke:#ffffff;stroke-width:0.66068554;stroke-linecap:butt;stroke-linejoin:miter;stroke-miterlimit:4;stroke-dasharray:none;stroke-dashoffset:0;stroke-opacity:1" d="M 52.851 71.096 L 21.665 3.42" id="path1459"/>
  <path id="path1461" d="M 46.738 73.29 L 27.778 1.227" style="opacity:1;vector-effect:none;fill:none;fill-opacity:1;stroke:#ffffff;stroke-width:0.66068554;stroke-linecap:butt;stroke-linejoin:miter;stroke-miterlimit:4;stroke-dasharray:none;stroke-dashoffset:0;stroke-opacity:1"/>
  <path style="opacity:1;vector-effect:none;fill:none;fill-opacity:1;stroke:#ffffff;stroke-width:0.66068554;stroke-linecap:butt;stroke-linejoin:miter;stroke-miterlimit:4;stroke-dasharray:none;stroke-dashoffset:0;stroke-opacity:1" d="M 40.338 74.388 L 34.179 0.128" id="path1463"/>
  <circle r="30.37" cy="37.258" cx="37.258" id="circle2048" style="opacity:1;vector-effect:none;fill:#000000;fill-opacity:1;fill-rule:evenodd;stroke:none;stroke-width:0.06447738;stroke-linecap:butt;stroke-linejoin:miter;stroke-miterlimit:4;stroke-dasharray:none;stroke-dashoffset:0;stroke-opacity:1"/>
  <g id="g1504" transform="matrix(0.550571, 0, 0, 0.550571, -46.558029, -63.184483)">
    <g aria-label="N" style="font-style:normal;font-variant:normal;font-weight:normal;font-stretch:normal;font-size:14.77090836px;line-height:17.30965805px;font-family:Arial;-inkscape-font-specification:Arial;letter-spacing:0px;word-spacing:0px;fill:#ffffff;fill-opacity:1;stroke:none;stroke-width:0.69238633" id="text1482">
      <path d="m 147.97278,140.44279 v -10.57331 h 1.43526 l 5.55352,8.30142 v -8.30142 h 1.3415 v 10.57331 h -1.43526 l -5.55352,-8.30863 v 8.30863 z" style="fill:#ffffff;stroke-width:0.69238633" id="path1796"/>
    </g>
    <g aria-label="S" style="font-style:normal;font-variant:normal;font-weight:normal;font-stretch:normal;font-size:14.77090836px;line-height:17.30965805px;font-family:Arial;-inkscape-font-specification:Arial;letter-spacing:0px;word-spacing:0px;fill:#ffffff;fill-opacity:1;stroke:none;stroke-width:0.69238633" id="text1486">
      <path d="m 147.51119,229.61157 1.31986,-0.1154 q 0.0938,0.79336 0.43275,1.30544 0.34619,0.50486 1.06742,0.82221 0.72124,0.31013 1.62279,0.31013 0.80057,0 1.41362,-0.23801 0.61305,-0.23801 0.90875,-0.64911 0.30292,-0.41832 0.30292,-0.90876 0,-0.49765 -0.28849,-0.86548 -0.2885,-0.37504 -0.95203,-0.62748 -0.42553,-0.16588 -1.88243,-0.51207 -1.45689,-0.35341 -2.04109,-0.66354 -0.7573,-0.39668 -1.13234,-0.98088 -0.36783,-0.59141 -0.36783,-1.31986 0,-0.80057 0.45437,-1.49296 0.45438,-0.6996 1.32708,-1.06022 0.87269,-0.36061 1.94012,-0.36061 1.17562,0 2.06995,0.38225 0.90154,0.37504 1.38477,1.1107 0.48323,0.73566 0.51929,1.66606 l -1.3415,0.10097 q -0.10818,-1.00252 -0.73566,-1.51459 -0.62026,-0.51208 -1.83915,-0.51208 -1.26937,0 -1.85358,0.4688 -0.57698,0.46159 -0.57698,1.11792 0,0.56977 0.4111,0.9376 0.40389,0.36783 2.10601,0.7573 1.70933,0.38226 2.34402,0.67075 0.92318,0.42553 1.36313,1.08185 0.43995,0.64912 0.43995,1.50017 0,0.84385 -0.48322,1.59394 -0.48323,0.74287 -1.39199,1.16119 -0.90154,0.4111 -2.03388,0.4111 -1.43526,0 -2.40893,-0.41832 -0.96646,-0.41831 -1.52181,-1.25495 -0.54814,-0.84384 -0.57699,-1.90406 z" style="fill:#ffffff;stroke-width:0.69238633" id="path1799"/>
    </g>
    <g aria-label="E" transform="rotate(90)" style="font-style:normal;font-variant:normal;font-weight:normal;font-stretch:normal;font-size:14.77090836px;line-height:17.30965805px;font-family:Arial;-inkscape-font-specification:Arial;letter-spacing:0px;word-spacing:0px;fill:#ffffff;fill-opacity:1;stroke:none;stroke-width:0.69238633" id="text1490">
      <path d="m 178.13816,-192.99352 v -10.57331 h 7.6451 v 1.24774 h -6.2459 v 3.23835 h 5.84922 v 1.24052 h -5.84922 v 3.59897 h 6.49112 v 1.24773 z" style="fill:#ffffff;stroke-width:0.69238633" id="path1790"/>
    </g>
    <g aria-label="W" transform="matrix(0,1,1,0,0,0)" style="font-style:normal;font-variant:normal;font-weight:normal;font-stretch:normal;font-size:14.77090836px;line-height:17.30965805px;font-family:Arial;-inkscape-font-specification:Arial;letter-spacing:0px;word-spacing:0px;fill:#ffffff;fill-opacity:1;stroke:none;stroke-width:0.69238633" id="text1494">
      <path d="m 178.15556,111.00105 -2.8056,-10.57331 h 1.43526 l 1.60835,6.93107 q 0.25965,1.08907 0.44717,2.16371 0.40389,-1.6949 0.47601,-1.95455 l 2.01225,-7.14023 h 1.68769 l 1.5146,5.35157 q 0.56977,1.99061 0.82221,3.74321 0.20194,-1.00252 0.5265,-2.30074 l 1.65884,-6.79404 h 1.40641 l -2.89937,10.57331 h -1.34871 l -2.22862,-8.0562 q -0.28128,-1.00973 -0.33177,-1.24053 -0.16588,0.72845 -0.31013,1.24053 l -2.24304,8.0562 z" style="fill:#ffffff;stroke-width:0.69238633" id="path1793"/>
    </g>
  </g>
  <path style="opacity:1;vector-effect:none;fill:#000000;fill-opacity:1;fill-rule:evenodd;stroke:none;stroke-width:0.07909996;stroke-linecap:butt;stroke-linejoin:miter;stroke-miterlimit:4;stroke-dasharray:none;stroke-dashoffset:0;stroke-opacity:1" d="M 37.258 0 C 16.681 0 0 16.681 0 37.258 C 0 57.835 16.681 74.516 37.258 74.516 C 57.835 74.516 74.516 57.835 74.516 37.258 C 74.516 16.681 57.835 0 37.258 0 Z M 37.258 0.583 C 38.481 0.583 39.703 0.644 40.92 0.766 C 42.136 0.888 43.346 1.071 44.544 1.314 C 45.743 1.557 46.928 1.859 48.097 2.221 C 49.265 2.582 50.414 3.002 51.54 3.478 C 52.666 3.954 53.768 4.486 54.841 5.072 C 55.914 5.659 56.958 6.298 57.967 6.989 C 58.976 7.679 59.95 8.42 60.885 9.207 C 61.82 9.995 62.716 10.829 63.567 11.706 C 64.419 12.583 65.227 13.503 65.987 14.46 C 66.747 15.418 67.459 16.413 68.119 17.442 C 68.78 18.471 69.389 19.533 69.943 20.622 C 70.498 21.712 70.998 22.829 71.441 23.969 C 71.884 25.108 72.27 26.269 72.597 27.448 C 72.924 28.626 73.192 29.82 73.4 31.025 C 73.608 32.23 73.755 33.444 73.842 34.664 C 73.903 35.527 73.933 36.392 73.933 37.258 C 73.933 38.481 73.872 39.703 73.75 40.919 C 73.628 42.136 73.445 43.346 73.203 44.544 C 72.96 45.743 72.657 46.928 72.296 48.096 C 71.934 49.264 71.515 50.414 71.039 51.54 C 70.562 52.666 70.03 53.768 69.444 54.841 C 68.858 55.914 68.218 56.958 67.528 57.967 C 66.837 58.976 66.097 59.95 65.309 60.885 C 64.521 61.82 63.687 62.716 62.81 63.567 C 61.933 64.419 61.014 65.227 60.056 65.987 C 59.098 66.747 58.103 67.459 57.074 68.119 C 56.045 68.78 54.984 69.389 53.894 69.943 C 52.804 70.498 51.687 70.998 50.548 71.441 C 49.408 71.884 48.247 72.27 47.069 72.597 C 45.891 72.924 44.697 73.192 43.492 73.4 C 42.287 73.608 41.072 73.755 39.853 73.842 C 38.989 73.903 38.124 73.933 37.258 73.933 C 36.036 73.933 34.814 73.872 33.597 73.75 C 32.38 73.628 31.17 73.445 29.972 73.203 C 28.774 72.96 27.588 72.657 26.42 72.296 C 25.252 71.934 24.102 71.515 22.976 71.039 C 21.85 70.562 20.748 70.03 19.675 69.444 C 18.602 68.858 17.559 68.218 16.55 67.528 C 15.54 66.837 14.566 66.097 13.631 65.309 C 12.696 64.521 11.801 63.687 10.949 62.81 C 10.097 61.933 9.289 61.014 8.529 60.056 C 7.769 59.098 7.058 58.103 6.397 57.074 C 5.736 56.045 5.127 54.984 4.573 53.894 C 4.018 52.804 3.518 51.687 3.075 50.548 C 2.632 49.408 2.246 48.247 1.919 47.069 C 1.592 45.89 1.324 44.697 1.116 43.492 C 0.909 42.287 0.761 41.072 0.675 39.852 C 0.613 38.989 0.583 38.124 0.583 37.258 C 0.583 36.035 0.644 34.813 0.766 33.597 C 0.888 32.38 1.071 31.17 1.314 29.972 C 1.557 28.774 1.859 27.588 2.221 26.42 C 2.582 25.252 3.002 24.102 3.478 22.976 C 3.954 21.85 4.486 20.748 5.072 19.675 C 5.659 18.602 6.298 17.559 6.989 16.55 C 7.679 15.54 8.42 14.566 9.207 13.631 C 9.995 12.696 10.829 11.801 11.706 10.949 C 12.583 10.097 13.503 9.289 14.46 8.529 C 15.418 7.769 16.413 7.058 17.442 6.397 C 18.471 5.736 19.533 5.127 20.622 4.573 C 21.712 4.018 22.829 3.518 23.969 3.075 C 25.108 2.632 26.269 2.246 27.448 1.919 C 28.626 1.592 29.82 1.324 31.025 1.116 C 32.23 0.909 33.444 0.761 34.664 0.675 C 35.527 0.613 36.393 0.583 37.258 0.583 Z" id="circle1508"/>
  <g id="g1523" style="stroke:#ffffff" transform="matrix(0.550571, 0, 0, 0.550571, -46.558029, -165.050217)">
    <path style="opacity:1;vector-effect:none;fill:none;fill-opacity:1;stroke:#ffffff;stroke-width:1.20000005;stroke-linecap:butt;stroke-linejoin:miter;stroke-miterlimit:4;stroke-dasharray:none;stroke-dashoffset:0;stroke-opacity:1" d="m 152.2352,419.72278 v 14.34218" id="path1515"/>
    <path id="path1519" d="m 152.2352,300.6807 v 14.34218" style="opacity:1;vector-effect:none;fill:none;fill-opacity:1;stroke:#ffffff;stroke-width:1.20000005;stroke-linecap:butt;stroke-linejoin:miter;stroke-miterlimit:4;stroke-dasharray:none;stroke-dashoffset:0;stroke-opacity:1"/>
  </g>
  <g style="stroke:#ffffff" id="g1529" transform="matrix(0.542207, 0.095606, -0.095606, 0.542207, -10.161732, -176.531921)">
    <path id="path1525" d="m 152.2352,419.72278 v 14.34218" style="opacity:1;vector-effect:none;fill:none;fill-opacity:1;stroke:#ffffff;stroke-width:1.20000005;stroke-linecap:butt;stroke-linejoin:miter;stroke-miterlimit:4;stroke-dasharray:none;stroke-dashoffset:0;stroke-opacity:1"/>
    <path style="opacity:1;vector-effect:none;fill:none;fill-opacity:1;stroke:#ffffff;stroke-width:1.20000005;stroke-linecap:butt;stroke-linejoin:miter;stroke-miterlimit:4;stroke-dasharray:none;stroke-dashoffset:0;stroke-opacity:1" d="m 152.2352,300.6807 v 14.34218" id="path1527"/>
  </g>
  <g transform="matrix(0.517368, 0.188306, -0.188306, 0.517368, 27.675411, -181.519028)" id="g1536" style="stroke:#ffffff">
    <path style="opacity:1;vector-effect:none;fill:none;fill-opacity:1;stroke:#ffffff;stroke-width:1.20000005;stroke-linecap:butt;stroke-linejoin:miter;stroke-miterlimit:4;stroke-dasharray:none;stroke-dashoffset:0;stroke-opacity:1" d="m 152.2352,419.72278 v 14.34218" id="path1532"/>
    <path id="path1534" d="m 152.2352,300.6807 v 14.34218" style="opacity: 1; vector-effect: none; fill: none; stroke-width: 1.2; stroke-linecap: butt; stroke-linejoin: miter; stroke-miterlimit: 4; stroke-dasharray: none; stroke-dashoffset: 0; stroke-opacity: 1; fill-opacity: 0; stroke: rgb(253, 254, 253);"/>
  </g>
  <g style="stroke:#ffffff" id="g1542" transform="matrix(0.476809, 0.275286, -0.275286, 0.476809, 65.803688, -179.860031)">
    <path id="path1538" d="m 152.2352,419.72278 v 14.34218" style="opacity:1;vector-effect:none;fill:none;fill-opacity:1;stroke:#ffffff;stroke-width:1.20000005;stroke-linecap:butt;stroke-linejoin:miter;stroke-miterlimit:4;stroke-dasharray:none;stroke-dashoffset:0;stroke-opacity:1"/>
    <path style="opacity:1;vector-effect:none;fill:none;fill-opacity:1;stroke:#ffffff;stroke-width:1.20000005;stroke-linecap:butt;stroke-linejoin:miter;stroke-miterlimit:4;stroke-dasharray:none;stroke-dashoffset:0;stroke-opacity:1" d="m 152.2352,300.6807 v 14.34218" id="path1540"/>
  </g>
  <g transform="matrix(0.421762, 0.3539, -0.3539, 0.421762, 103.064659, -171.605316)" id="g1548" style="stroke:#ffffff">
    <path style="opacity:1;vector-effect:none;fill:none;fill-opacity:1;stroke:#ffffff;stroke-width:1.20000005;stroke-linecap:butt;stroke-linejoin:miter;stroke-miterlimit:4;stroke-dasharray:none;stroke-dashoffset:0;stroke-opacity:1" d="m 152.2352,419.72278 v 14.34218" id="path1544"/>
    <path id="path1546" d="m 152.2352,300.6807 v 14.34218" style="opacity:1;vector-effect:none;fill:none;fill-opacity:1;stroke:#ffffff;stroke-width:1.20000005;stroke-linecap:butt;stroke-linejoin:miter;stroke-miterlimit:4;stroke-dasharray:none;stroke-dashoffset:0;stroke-opacity:1"/>
  </g>
  <g style="stroke:#ffffff" id="g1554" transform="matrix(0.3539, 0.421762, -0.421762, 0.3539, 138.326141, -157.005722)">
    <path id="path1550" d="m 152.2352,419.72278 v 14.34218" style="opacity:1;vector-effect:none;fill:none;fill-opacity:1;stroke:#ffffff;stroke-width:1.20000005;stroke-linecap:butt;stroke-linejoin:miter;stroke-miterlimit:4;stroke-dasharray:none;stroke-dashoffset:0;stroke-opacity:1"/>
    <path style="opacity:1;vector-effect:none;fill:none;fill-opacity:1;stroke:#ffffff;stroke-width:1.20000005;stroke-linecap:butt;stroke-linejoin:miter;stroke-miterlimit:4;stroke-dasharray:none;stroke-dashoffset:0;stroke-opacity:1" d="m 152.2352,300.6807 v 14.34218" id="path1552"/>
  </g>
  <g transform="matrix(0.275286, 0.476809, -0.476809, 0.275286, 170.516663, -136.504822)" id="g1560" style="stroke:#ffffff">
    <path style="opacity:1;vector-effect:none;fill:none;fill-opacity:1;stroke:#ffffff;stroke-width:1.20000005;stroke-linecap:butt;stroke-linejoin:miter;stroke-miterlimit:4;stroke-dasharray:none;stroke-dashoffset:0;stroke-opacity:1" d="m 152.2352,419.72278 v 14.34218" id="path1556"/>
    <path id="path1558" d="m 152.2352,300.6807 v 14.34218" style="opacity:1;vector-effect:none;fill:none;fill-opacity:1;stroke:#ffffff;stroke-width:1.20000005;stroke-linecap:butt;stroke-linejoin:miter;stroke-miterlimit:4;stroke-dasharray:none;stroke-dashoffset:0;stroke-opacity:1"/>
  </g>
  <g style="stroke:#ffffff" id="g1566" transform="matrix(0.188306, 0.517368, -0.517368, 0.188306, 198.658264, -110.725555)">
    <path id="path1562" d="m 152.2352,419.72278 v 14.34218" style="opacity:1;vector-effect:none;fill:none;fill-opacity:1;stroke:#ffffff;stroke-width:1.20000005;stroke-linecap:butt;stroke-linejoin:miter;stroke-miterlimit:4;stroke-dasharray:none;stroke-dashoffset:0;stroke-opacity:1"/>
    <path style="opacity:1;vector-effect:none;fill:none;fill-opacity:1;stroke:#ffffff;stroke-width:1.20000005;stroke-linecap:butt;stroke-linejoin:miter;stroke-miterlimit:4;stroke-dasharray:none;stroke-dashoffset:0;stroke-opacity:1" d="m 152.2352,300.6807 v 14.34218" id="path1564"/>
  </g>
  <g transform="matrix(0.095606, 0.542207, -0.542207, 0.095606, 221.895813, -80.451202)" id="g1572" style="stroke:#ffffff">
    <path style="opacity:1;vector-effect:none;fill:none;fill-opacity:1;stroke:#ffffff;stroke-width:1.20000005;stroke-linecap:butt;stroke-linejoin:miter;stroke-miterlimit:4;stroke-dasharray:none;stroke-dashoffset:0;stroke-opacity:1" d="m 152.2352,419.72278 v 14.34218" id="path1568"/>
    <path id="path1570" d="m 152.2352,300.6807 v 14.34218" style="opacity:1;vector-effect:none;fill:none;fill-opacity:1;stroke:#ffffff;stroke-width:1.20000005;stroke-linecap:butt;stroke-linejoin:miter;stroke-miterlimit:4;stroke-dasharray:none;stroke-dashoffset:0;stroke-opacity:1"/>
  </g>
  <g style="stroke:#ffffff" id="g1578" transform="matrix(0, 0.550571, -0.550571, 0, 239.523193, -46.60162)">
    <path id="path1574" d="m 152.2352,419.72278 v 14.34218" style="opacity:1;vector-effect:none;fill:none;fill-opacity:1;stroke:#ffffff;stroke-width:1.20000005;stroke-linecap:butt;stroke-linejoin:miter;stroke-miterlimit:4;stroke-dasharray:none;stroke-dashoffset:0;stroke-opacity:1"/>
    <path style="opacity:1;vector-effect:none;fill:none;fill-opacity:1;stroke:#ffffff;stroke-width:1.20000005;stroke-linecap:butt;stroke-linejoin:miter;stroke-miterlimit:4;stroke-dasharray:none;stroke-dashoffset:0;stroke-opacity:1" d="m 152.2352,300.6807 v 14.34218" id="path1576"/>
  </g>
  <g transform="matrix(-0.095606, 0.542207, -0.542207, -0.095606, 251.004913, -10.205341)" id="g1584" style="stroke:#ffffff">
    <path style="opacity:1;vector-effect:none;fill:none;fill-opacity:1;stroke:#ffffff;stroke-width:1.20000005;stroke-linecap:butt;stroke-linejoin:miter;stroke-miterlimit:4;stroke-dasharray:none;stroke-dashoffset:0;stroke-opacity:1" d="m 152.2352,419.72278 v 14.34218" id="path1580"/>
    <path id="path1582" d="m 152.2352,300.6807 v 14.34218" style="opacity:1;vector-effect:none;fill:none;fill-opacity:1;stroke:#ffffff;stroke-width:1.20000005;stroke-linecap:butt;stroke-linejoin:miter;stroke-miterlimit:4;stroke-dasharray:none;stroke-dashoffset:0;stroke-opacity:1"/>
  </g>
  <g style="stroke:#ffffff" id="g1590" transform="matrix(-0.188306, 0.517368, -0.517368, -0.188306, 255.992004, 27.631786)">
    <path id="path1586" d="m 152.2352,419.72278 v 14.34218" style="opacity:1;vector-effect:none;fill:none;fill-opacity:1;stroke:#ffffff;stroke-width:1.20000005;stroke-linecap:butt;stroke-linejoin:miter;stroke-miterlimit:4;stroke-dasharray:none;stroke-dashoffset:0;stroke-opacity:1"/>
    <path style="opacity:1;vector-effect:none;fill:none;fill-opacity:1;stroke:#ffffff;stroke-width:1.20000005;stroke-linecap:butt;stroke-linejoin:miter;stroke-miterlimit:4;stroke-dasharray:none;stroke-dashoffset:0;stroke-opacity:1" d="m 152.2352,300.6807 v 14.34218" id="path1588"/>
  </g>
  <g transform="matrix(-0.275286, 0.476809, -0.476809, -0.275286, 254.333008, 65.760086)" id="g1596" style="stroke:#ffffff">
    <path style="opacity:1;vector-effect:none;fill:none;fill-opacity:1;stroke:#ffffff;stroke-width:1.20000005;stroke-linecap:butt;stroke-linejoin:miter;stroke-miterlimit:4;stroke-dasharray:none;stroke-dashoffset:0;stroke-opacity:1" d="m 152.2352,419.72278 v 14.34218" id="path1592"/>
    <path id="path1594" d="m 152.2352,300.6807 v 14.34218" style="opacity:1;vector-effect:none;fill:none;fill-opacity:1;stroke:#ffffff;stroke-width:1.20000005;stroke-linecap:butt;stroke-linejoin:miter;stroke-miterlimit:4;stroke-dasharray:none;stroke-dashoffset:0;stroke-opacity:1"/>
  </g>
  <g style="stroke:#ffffff" id="g1602" transform="matrix(-0.3539, 0.421762, -0.421762, -0.3539, 246.078278, 103.021042)">
    <path id="path1598" d="m 152.2352,419.72278 v 14.34218" style="opacity:1;vector-effect:none;fill:none;fill-opacity:1;stroke:#ffffff;stroke-width:1.20000005;stroke-linecap:butt;stroke-linejoin:miter;stroke-miterlimit:4;stroke-dasharray:none;stroke-dashoffset:0;stroke-opacity:1"/>
    <path style="opacity:1;vector-effect:none;fill:none;fill-opacity:1;stroke:#ffffff;stroke-width:1.20000005;stroke-linecap:butt;stroke-linejoin:miter;stroke-miterlimit:4;stroke-dasharray:none;stroke-dashoffset:0;stroke-opacity:1" d="m 152.2352,300.6807 v 14.34218" id="path1600"/>
  </g>
  <g transform="matrix(-0.421762, 0.3539, -0.3539, -0.421762, 231.478699, 138.282547)" id="g1608" style="stroke:#ffffff">
    <path style="opacity:1;vector-effect:none;fill:none;fill-opacity:1;stroke:#ffffff;stroke-width:1.20000005;stroke-linecap:butt;stroke-linejoin:miter;stroke-miterlimit:4;stroke-dasharray:none;stroke-dashoffset:0;stroke-opacity:1" d="m 152.2352,419.72278 v 14.34218" id="path1604"/>
    <path id="path1606" d="m 152.2352,300.6807 v 14.34218" style="opacity:1;vector-effect:none;fill:none;fill-opacity:1;stroke:#ffffff;stroke-width:1.20000005;stroke-linecap:butt;stroke-linejoin:miter;stroke-miterlimit:4;stroke-dasharray:none;stroke-dashoffset:0;stroke-opacity:1"/>
  </g>
  <g style="stroke:#ffffff" id="g1614" transform="matrix(-0.476809, 0.275286, -0.275286, -0.476809, 210.977829, 170.473099)">
    <path id="path1610" d="m 152.2352,419.72278 v 14.34218" style="opacity:1;vector-effect:none;fill:none;fill-opacity:1;stroke:#ffffff;stroke-width:1.20000005;stroke-linecap:butt;stroke-linejoin:miter;stroke-miterlimit:4;stroke-dasharray:none;stroke-dashoffset:0;stroke-opacity:1"/>
    <path style="opacity:1;vector-effect:none;fill:none;fill-opacity:1;stroke:#ffffff;stroke-width:1.20000005;stroke-linecap:butt;stroke-linejoin:miter;stroke-miterlimit:4;stroke-dasharray:none;stroke-dashoffset:0;stroke-opacity:1" d="m 152.2352,300.6807 v 14.34218" id="path1612"/>
  </g>
  <g transform="matrix(-0.517368, 0.188306, -0.188306, -0.517368, 185.198547, 198.6147)" id="g1621" style="stroke:#ffffff">
    <path style="opacity:1;vector-effect:none;fill:none;fill-opacity:1;stroke:#ffffff;stroke-width:1.20000005;stroke-linecap:butt;stroke-linejoin:miter;stroke-miterlimit:4;stroke-dasharray:none;stroke-dashoffset:0;stroke-opacity:1" d="m 152.2352,419.72278 v 14.34218" id="path1616"/>
    <path id="path1619" d="m 152.2352,300.6807 v 14.34218" style="opacity:1;vector-effect:none;fill:none;fill-opacity:1;stroke:#ffffff;stroke-width:1.20000005;stroke-linecap:butt;stroke-linejoin:miter;stroke-miterlimit:4;stroke-dasharray:none;stroke-dashoffset:0;stroke-opacity:1"/>
  </g>
  <g style="stroke:#ffffff" id="g1627" transform="matrix(-0.542207, 0.095606, -0.095606, -0.542207, 154.924194, 221.852219)">
    <path id="path1623" d="m 152.2352,419.72278 v 14.34218" style="opacity:1;vector-effect:none;fill:none;fill-opacity:1;stroke:#ffffff;stroke-width:1.20000005;stroke-linecap:butt;stroke-linejoin:miter;stroke-miterlimit:4;stroke-dasharray:none;stroke-dashoffset:0;stroke-opacity:1"/>
    <path style="opacity:1;vector-effect:none;fill:none;fill-opacity:1;stroke:#ffffff;stroke-width:1.20000005;stroke-linecap:butt;stroke-linejoin:miter;stroke-miterlimit:4;stroke-dasharray:none;stroke-dashoffset:0;stroke-opacity:1" d="m 152.2352,300.6807 v 14.34218" id="path1625"/>
  </g>
  <g id="g1701" transform="matrix(0.550571, 0, 0, 0.550571, -46.558029, -62.792507)">
    <g transform="rotate(30,151.8421,182.05348)" id="g1641">
      <g aria-label="3" style="font-style:normal;font-variant:normal;font-weight:normal;font-stretch:normal;font-size:13.8889122px;line-height:16.27606773px;font-family:Arial;-inkscape-font-specification:Arial;letter-spacing:0px;word-spacing:0px;fill:#ffffff;fill-opacity:1;stroke:none;stroke-width:0.6510427" id="text1631">
        <path d="m 148.56302,138.01989 1.22071,-0.16276 q 0.21023,1.0376 0.71208,1.49876 0.50862,0.45437 1.23426,0.45437 0.86128,0 1.45129,-0.59679 0.59679,-0.59679 0.59679,-1.47841 0,-0.84093 -0.54932,-1.38346 -0.54932,-0.54932 -1.39703,-0.54932 -0.34587,0 -0.86127,0.13563 l 0.13563,-1.07151 q 0.12207,0.0136 0.19667,0.0136 0.77989,0 1.40381,-0.4069 0.62392,-0.40691 0.62392,-1.25462 0,-0.67139 -0.45438,-1.1122 -0.45437,-0.44081 -1.17323,-0.44081 -0.71208,0 -1.1868,0.4476 -0.47472,0.44759 -0.61035,1.34277 l -1.22071,-0.21701 q 0.2238,-1.22749 1.01726,-1.89888 0.79346,-0.67817 1.97347,-0.67817 0.8138,0 1.49876,0.35265 0.68495,0.34587 1.04438,0.94944 0.36621,0.60357 0.36621,1.28174 0,0.64426 -0.34587,1.17323 -0.34586,0.52898 -1.02403,0.84093 0.88162,0.20345 1.3699,0.84771 0.48828,0.63748 0.48828,1.60049 0,1.30208 -0.94944,2.21083 -0.94943,0.90196 -2.40072,0.90196 -1.30886,0 -2.17692,-0.77989 -0.86128,-0.7799 -0.98335,-2.02095 z" style="fill:#ffffff;stroke-width:0.6510427" id="path1825"/>
      </g>
      <g aria-label="21" transform="scale(-1)" style="font-style:normal;font-variant:normal;font-weight:normal;font-stretch:normal;font-size:13.8889122px;line-height:16.27606773px;font-family:Arial;-inkscape-font-specification:Arial;letter-spacing:0px;word-spacing:0px;fill:#ffffff;fill-opacity:1;stroke:none;stroke-width:0.6510427" id="text1635">
        <path d="m -151.51265,-224.63579 v 1.17324 h -6.57146 q -0.0136,-0.44082 0.14241,-0.84772 0.25093,-0.67138 0.80024,-1.32243 0.5561,-0.65104 1.60048,-1.50553 1.62083,-1.32922 2.19049,-2.10233 0.56966,-0.77989 0.56966,-1.47163 0,-0.72564 -0.52219,-1.2207 -0.51541,-0.50185 -1.34955,-0.50185 -0.88163,0 -1.4106,0.52897 -0.52897,0.52898 -0.53575,1.46485 l -1.25461,-0.12885 q 0.12885,-1.40381 0.96978,-2.13624 0.84093,-0.7392 2.2583,-0.7392 1.43094,0 2.26509,0.79346 0.83415,0.79346 0.83415,1.96669 0,0.59679 -0.24414,1.17323 -0.24415,0.57645 -0.81381,1.21393 -0.56288,0.63748 -1.87853,1.74967 -1.09863,0.92231 -1.41059,1.25462 -0.31196,0.32552 -0.51541,0.65782 z" style="fill:#ffffff;stroke-width:0.6510427" id="path1802"/>
        <path d="m -145.59901,-223.46255 h -1.22071 v -7.77861 q -0.44081,0.42047 -1.15967,0.84093 -0.71207,0.42047 -1.28174,0.6307 v -1.18002 q 1.02404,-0.4815 1.79037,-1.16645 0.76633,-0.68495 1.08507,-1.32921 h 0.78668 z" style="fill:#ffffff;stroke-width:0.6510427" id="path1805"/>
      </g>
    </g>
    <g id="g1651" transform="rotate(60,151.28932,182.5987)">
      <g aria-label="6" style="font-style:normal;font-variant:normal;font-weight:normal;font-stretch:normal;font-size:13.8889122px;line-height:16.27606773px;font-family:Arial;-inkscape-font-specification:Arial;letter-spacing:0px;word-spacing:0px;fill:#ffffff;fill-opacity:1;stroke:none;stroke-width:0.6510427" id="text1645">
        <path d="m 154.89034,133.13707 -1.21392,0.095 q -0.16276,-0.71886 -0.46115,-1.04438 -0.49507,-0.5222 -1.22071,-0.5222 -0.58322,0 -1.02403,0.32553 -0.57645,0.42046 -0.90875,1.22748 -0.33231,0.80702 -0.34587,2.299 0.44081,-0.67139 1.07829,-0.99691 0.63748,-0.32552 1.33599,-0.32552 1.22071,0 2.0752,0.90196 0.86128,0.89519 0.86128,2.31934 0,0.93588 -0.4069,1.7429 -0.40012,0.80024 -1.10542,1.22748 -0.7053,0.42725 -1.60048,0.42725 -1.52588,0 -2.48888,-1.11898 -0.963,-1.12576 -0.963,-3.7028 0,-2.88222 1.06472,-4.19109 0.9291,-1.13933 2.50245,-1.13933 1.17323,0 1.91922,0.65783 0.75277,0.65782 0.90196,1.81749 z m -4.98454,4.28603 q 0,0.6307 0.26448,1.20715 0.27127,0.57644 0.75277,0.88162 0.4815,0.29839 1.01048,0.29839 0.77311,0 1.32921,-0.62392 0.5561,-0.62391 0.5561,-1.69542 0,-1.03082 -0.54932,-1.62082 -0.54932,-0.59679 -1.38347,-0.59679 -0.82736,0 -1.40381,0.59679 -0.57644,0.59 -0.57644,1.553 z" style="fill:#ffffff;stroke-width:0.6510427" id="path1828"/>
      </g>
      <g aria-label="24" transform="scale(-1)" style="font-style:normal;font-variant:normal;font-weight:normal;font-stretch:normal;font-size:13.8889122px;line-height:16.27606773px;font-family:Arial;-inkscape-font-specification:Arial;letter-spacing:0px;word-spacing:0px;fill:#ffffff;fill-opacity:1;stroke:none;stroke-width:0.6510427" id="text1649">
        <path d="m -150.59735,-224.88104 v 1.17323 h -6.57146 q -0.0136,-0.44081 0.14241,-0.84771 0.25092,-0.67139 0.80024,-1.32243 0.5561,-0.65104 1.60048,-1.50554 1.62083,-1.32921 2.19049,-2.10232 0.56966,-0.7799 0.56966,-1.47163 0,-0.72564 -0.52219,-1.22071 -0.51541,-0.50184 -1.34956,-0.50184 -0.88162,0 -1.41059,0.52897 -0.52897,0.52897 -0.53575,1.46485 l -1.25462,-0.12886 q 0.12886,-1.40381 0.96979,-2.13623 0.84093,-0.73921 2.2583,-0.73921 1.43094,0 2.26509,0.79346 0.83415,0.79346 0.83415,1.96669 0,0.59679 -0.24415,1.17324 -0.24414,0.57644 -0.8138,1.21392 -0.56288,0.63748 -1.87853,1.74968 -1.09863,0.92231 -1.41059,1.25461 -0.31196,0.32552 -0.51541,0.65783 z" style="fill:#ffffff;stroke-width:0.6510427" id="path1810"/>
        <path d="m -145.36866,-223.70781 v -2.38037 h -4.31316 v -1.11898 l 4.53695,-6.44261 h 0.99691 v 6.44261 h 1.34278 v 1.11898 h -1.34278 v 2.38037 z m 0,-3.49935 v -4.4827 l -3.1128,4.4827 z" style="fill:#ffffff;stroke-width:0.6510427" id="path1812"/>
      </g>
    </g>
    <g transform="rotate(120,151.48265,183.46251)" id="g1669">
      <g aria-label="12" style="font-style:normal;font-variant:normal;font-weight:normal;font-stretch:normal;font-size:13.8889122px;line-height:16.27606773px;font-family:Arial;-inkscape-font-specification:Arial;letter-spacing:0px;word-spacing:0px;fill:#ffffff;fill-opacity:1;stroke:none;stroke-width:0.6510427" id="text1663">
        <path d="m 146.88842,142.34717 h -1.2207 v -7.77861 q -0.44081,0.42047 -1.15967,0.84093 -0.71208,0.42047 -1.28174,0.6307 v -1.18001 q 1.02403,-0.4815 1.79036,-1.16646 0.76634,-0.68495 1.08508,-1.32921 h 0.78667 z" style="fill:#ffffff;stroke-width:0.6510427" id="path1831"/>
        <path d="m 156.43705,141.17393 v 1.17324 h -6.57146 q -0.0136,-0.44081 0.14241,-0.84771 0.25093,-0.67139 0.80024,-1.32243 0.5561,-0.65105 1.60048,-1.50554 1.62083,-1.32921 2.19049,-2.10233 0.56966,-0.77989 0.56966,-1.47162 0,-0.72565 -0.52219,-1.22071 -0.51541,-0.50185 -1.34955,-0.50185 -0.88163,0 -1.4106,0.52898 -0.52897,0.52897 -0.53575,1.46484 l -1.25461,-0.12885 q 0.12885,-1.40381 0.96978,-2.13623 0.84093,-0.73921 2.2583,-0.73921 1.43094,0 2.26509,0.79346 0.83415,0.79346 0.83415,1.96669 0,0.59679 -0.24414,1.17324 -0.24415,0.57644 -0.81381,1.21392 -0.56288,0.63748 -1.87853,1.74968 -1.09863,0.92231 -1.41059,1.25461 -0.31196,0.32552 -0.51541,0.65782 z" style="fill:#ffffff;stroke-width:0.6510427" id="path1834"/>
      </g>
      <g aria-label="30" transform="scale(-1)" style="font-style:normal;font-variant:normal;font-weight:normal;font-stretch:normal;font-size:13.8889122px;line-height:16.27606773px;font-family:Arial;-inkscape-font-specification:Arial;letter-spacing:0px;word-spacing:0px;fill:#ffffff;fill-opacity:1;stroke:none;stroke-width:0.6510427" id="text1667">
        <path d="m -156.31608,-228.51836 1.2207,-0.16276 q 0.21024,1.0376 0.71208,1.49875 0.50863,0.45438 1.23427,0.45438 0.86128,0 1.45128,-0.59679 0.59679,-0.59679 0.59679,-1.47841 0,-0.84093 -0.54932,-1.38347 -0.54931,-0.54932 -1.39702,-0.54932 -0.34587,0 -0.86128,0.13564 l 0.13563,-1.07151 q 0.12207,0.0136 0.19667,0.0136 0.7799,0 1.40381,-0.4069 0.62392,-0.4069 0.62392,-1.25461 0,-0.67139 -0.45437,-1.1122 -0.45438,-0.44081 -1.17324,-0.44081 -0.71207,0 -1.18679,0.44759 -0.47472,0.44759 -0.61036,1.34278 l -1.2207,-0.21702 q 0.2238,-1.22748 1.01725,-1.89887 0.79346,-0.67817 1.97348,-0.67817 0.8138,0 1.49875,0.35265 0.68495,0.34586 1.04438,0.94944 0.36621,0.60357 0.36621,1.28174 0,0.64426 -0.34586,1.17323 -0.34587,0.52897 -1.02404,0.84093 0.88162,0.20345 1.3699,0.84771 0.48829,0.63748 0.48829,1.60048 0,1.30209 -0.94944,2.21083 -0.94944,0.90197 -2.40072,0.90197 -1.30887,0 -2.17693,-0.7799 -0.86127,-0.77989 -0.98334,-2.02094 z" style="fill:#ffffff;stroke-width:0.6510427" id="path1815"/>
        <path d="m -148.59173,-230.79701 q 0,-1.76324 0.35943,-2.83475 0.36621,-1.07829 1.07829,-1.66151 0.71886,-0.58323 1.80393,-0.58323 0.80024,0 1.40381,0.32552 0.60357,0.31874 0.99691,0.92909 0.39334,0.60357 0.61713,1.47841 0.2238,0.86806 0.2238,2.34647 0,1.74968 -0.35943,2.82797 -0.35943,1.0715 -1.07829,1.66151 -0.71208,0.58323 -1.80393,0.58323 -1.43772,0 -2.2583,-1.03082 -0.98335,-1.24105 -0.98335,-4.04189 z m 1.25461,0 q 0,2.44819 0.56967,3.262 0.57644,0.80702 1.41737,0.80702 0.84093,0 1.41059,-0.81381 0.57645,-0.8138 0.57645,-3.25521 0,-2.45497 -0.57645,-3.262 -0.56966,-0.80702 -1.42415,-0.80702 -0.84093,0 -1.34278,0.71208 -0.6307,0.90875 -0.6307,3.35694 z" style="fill:#ffffff;stroke-width:0.6510427" id="path1817"/>
      </g>
    </g>
    <g id="g1679" transform="rotate(150,151.0005,183.09569)">
      <g aria-label="15" style="font-style:normal;font-variant:normal;font-weight:normal;font-stretch:normal;font-size:13.8889122px;line-height:16.27606773px;font-family:Arial;-inkscape-font-specification:Arial;letter-spacing:0px;word-spacing:0px;fill:#ffffff;fill-opacity:1;stroke:none;stroke-width:0.6510427" id="text1673">
        <path d="m 146.88842,142.34717 h -1.2207 v -7.77861 q -0.44081,0.42047 -1.15967,0.84093 -0.71208,0.42047 -1.28174,0.6307 v -1.18001 q 1.02403,-0.4815 1.79036,-1.16646 0.76634,-0.68495 1.08508,-1.32921 h 0.78667 z" style="fill:#ffffff;stroke-width:0.6510427" id="path1837"/>
        <path d="m 150.02157,139.743 1.28174,-0.10851 q 0.14241,0.93587 0.65782,1.41059 0.52219,0.46794 1.25461,0.46794 0.88163,0 1.49198,-0.66461 0.61035,-0.6646 0.61035,-1.76324 0,-1.04438 -0.59001,-1.64795 -0.58322,-0.60357 -1.53266,-0.60357 -0.59001,0 -1.06473,0.27127 -0.47472,0.26448 -0.74598,0.69173 l -1.14611,-0.1492 0.963,-5.10661 h 4.94386 v 1.16645 h -3.96729 l -0.53576,2.67199 q 0.89519,-0.62392 1.87853,-0.62392 1.30209,0 2.19727,0.90197 0.89518,0.90196 0.89518,2.31934 0,1.34955 -0.78667,2.3329 -0.95622,1.20714 -2.61096,1.20714 -1.35633,0 -2.21761,-0.75955 -0.85449,-0.75955 -0.97656,-2.01416 z" style="fill:#ffffff;stroke-width:0.6510427" id="path1840"/>
      </g>
      <g aria-label="33" transform="scale(-1)" style="font-style:normal;font-variant:normal;font-weight:normal;font-stretch:normal;font-size:13.8889122px;line-height:16.27606773px;font-family:Arial;-inkscape-font-specification:Arial;letter-spacing:0px;word-spacing:0px;fill:#ffffff;fill-opacity:1;stroke:none;stroke-width:0.6510427" id="text1677">
        <path d="m -156.31608,-228.51836 1.2207,-0.16276 q 0.21024,1.0376 0.71208,1.49875 0.50863,0.45438 1.23427,0.45438 0.86128,0 1.45128,-0.59679 0.59679,-0.59679 0.59679,-1.47841 0,-0.84093 -0.54932,-1.38347 -0.54931,-0.54932 -1.39702,-0.54932 -0.34587,0 -0.86128,0.13564 l 0.13563,-1.07151 q 0.12207,0.0136 0.19667,0.0136 0.7799,0 1.40381,-0.4069 0.62392,-0.4069 0.62392,-1.25461 0,-0.67139 -0.45437,-1.1122 -0.45438,-0.44081 -1.17324,-0.44081 -0.71207,0 -1.18679,0.44759 -0.47472,0.44759 -0.61036,1.34278 l -1.2207,-0.21702 q 0.2238,-1.22748 1.01725,-1.89887 0.79346,-0.67817 1.97348,-0.67817 0.8138,0 1.49875,0.35265 0.68495,0.34586 1.04438,0.94944 0.36621,0.60357 0.36621,1.28174 0,0.64426 -0.34586,1.17323 -0.34587,0.52897 -1.02404,0.84093 0.88162,0.20345 1.3699,0.84771 0.48829,0.63748 0.48829,1.60048 0,1.30209 -0.94944,2.21083 -0.94944,0.90197 -2.40072,0.90197 -1.30887,0 -2.17693,-0.7799 -0.86127,-0.77989 -0.98334,-2.02094 z" style="fill:#ffffff;stroke-width:0.6510427" id="path1820"/>
        <path d="m -148.58495,-228.51836 1.22071,-0.16276 q 0.21023,1.0376 0.71207,1.49875 0.50863,0.45438 1.23427,0.45438 0.86128,0 1.45129,-0.59679 0.59679,-0.59679 0.59679,-1.47841 0,-0.84093 -0.54932,-1.38347 -0.54932,-0.54932 -1.39703,-0.54932 -0.34587,0 -0.86128,0.13564 l 0.13564,-1.07151 q 0.12207,0.0136 0.19667,0.0136 0.77989,0 1.40381,-0.4069 0.62391,-0.4069 0.62391,-1.25461 0,-0.67139 -0.45437,-1.1122 -0.45437,-0.44081 -1.17323,-0.44081 -0.71208,0 -1.1868,0.44759 -0.47472,0.44759 -0.61035,1.34278 l -1.22071,-0.21702 q 0.2238,-1.22748 1.01726,-1.89887 0.79345,-0.67817 1.97347,-0.67817 0.8138,0 1.49875,0.35265 0.68496,0.34586 1.04439,0.94944 0.36621,0.60357 0.36621,1.28174 0,0.64426 -0.34587,1.17323 -0.34587,0.52897 -1.02404,0.84093 0.88162,0.20345 1.36991,0.84771 0.48828,0.63748 0.48828,1.60048 0,1.30209 -0.94944,2.21083 -0.94944,0.90197 -2.40072,0.90197 -1.30887,0 -2.17692,-0.7799 -0.86128,-0.77989 -0.98335,-2.02094 z" style="fill:#ffffff;stroke-width:0.6510427" id="path1822"/>
      </g>
    </g>
  </g>
</svg>